<svg width="1440" height="1024" viewBox="0 0 1440 1024" fill="none" xmlns="http://www.w3.org/2000/svg">
<g filter="url(#filter0_f_209_151)">
<g filter="url(#filter1_f_209_151)">
<path d="M-10.8315 323.819L169.418 334.11L422.589 323.819L740.978 334.11L1044.99 341.828L1249.37 326.392L1468.14 335.139V1029.77L-10.8315 1038V323.819Z" fill="#8B3507"/>
</g>
<g style="mix-blend-mode:color-burn" filter="url(#filter2_f_209_151)">
<path d="M1.31616 739.407L838.995 759.246H1455.99V895.571L899.226 814.183L432.05 837.073L1.31616 876.75V739.407Z" fill="#F7EA8F"/>
</g>
<g style="mix-blend-mode:color-burn" opacity="0.7" filter="url(#filter3_f_209_151)">
<path d="M1.31612 481.509L412.31 508.977L974.643 563.405L790.91 593.417H575.796L-2.22693 569.001L1.31612 481.509Z" fill="#F7EA8F"/>
</g>
<g style="mix-blend-mode:color-burn" filter="url(#filter4_f_209_151)">
<path d="M658.299 651.08L1455.99 631.059V678.8L1027.26 687.014L658.299 651.08Z" fill="#F4E261"/>
</g>
<g style="mix-blend-mode:color-burn" filter="url(#filter5_f_209_151)">
<path d="M339.424 359.427L1092.07 379.314L918.46 398.595L570.735 398.595L339.424 359.427Z" fill="#EFDF6E"/>
</g>
<g style="mix-blend-mode:soft-light" opacity="0.3" filter="url(#filter6_f_209_151)">
<path d="M1.31616 332.975H472.542L1452.95 362.479L1455.49 379.774H1000.46L1.31616 350.27V332.975Z" fill="#FEF4A9"/>
<path d="M1.81616 333.475H472.542L1452.52 362.966L1454.91 379.274H1000.46L1.81616 349.785V333.475Z" stroke="#FEF4A9"/>
</g>
<g style="mix-blend-mode:soft-light" opacity="0.8" filter="url(#filter7_f_209_151)">
<path d="M211.368 718.983H686.643L1469.15 759.677H1282.89H917.954L66.1033 733.226L211.368 718.983Z" fill="#FEF4A9"/>
</g>
<g style="mix-blend-mode:soft-light" opacity="0.6" filter="url(#filter8_f_209_151)">
<path d="M307.537 940.843L994.383 914.392L1459.03 974.924V1027.83H621.856L247.305 974.924L307.537 940.843Z" fill="#FEF4A9"/>
</g>
<g style="mix-blend-mode:soft-light" opacity="0.6" filter="url(#filter9_f_209_151)">
<path d="M1.31616 446.41L166.827 440.306L374.349 462.179L1048.54 480.491L1455.99 530.85V577.14L951.36 562.388L437.111 513.555L1.31616 480.491V446.41Z" fill="#FEF4A9"/>
</g>
<path d="M48.8354 791.237L90.85 738.899L212.15 753.852L241.289 791.237L325.996 843.575L370.721 856.489L389.695 893.874H341.449L212.15 875.521H90.85L-18.9299 856.489L-10.1204 823.863L38.6706 814.347L48.8354 791.237Z" fill="#262820"/>
<path d="M90.1724 738.899L210.795 753.173L243.322 791.916L341.582 853.091L377.978 876.449L283.106 863.534L189.59 762.937L63.0663 772.884L90.1724 738.899Z" fill="#0D5F05"/>
<g style="mix-blend-mode:darken" opacity="0.6" filter="url(#filter10_f_209_151)">
<path d="M48.8354 791.237L80.7816 750.598L145.063 785.697L172.395 776.541L205.801 836.056L284.254 849.281L379.41 878.785L389.695 893.874H341.449L212.15 875.522H90.85L-18.9299 856.489L-10.1204 823.863L38.6706 814.347L48.8354 791.237Z" fill="#1F1501"/>
</g>
<path d="M989.662 524.954L1122.48 501.623L1152.83 457.498L1242.55 437.211L1258.82 422.502H1320.4L1336.23 465.613L1369.65 501.623L1391.2 595.452H1364.38L1283.45 581.251H1101.37L975.149 568.318V552.088L989.662 524.954Z" fill="#27211C"/>
<g style="mix-blend-mode:darken" filter="url(#filter11_f_209_151)">
<path d="M1081.95 546.111L1122.94 506.943L1217.59 526.272L1251.51 515.59L1239.87 501.623L1275.3 465.613L1326.42 440.815L1348.18 506.943L1374 526.272L1391.2 595.452H1364.38L1283.45 581.251H1101.37L975.149 567.475L1081.95 546.111Z" fill="#1F1500"/>
</g>
<path d="M989.662 524.954L1122.48 501.623L1152.83 457.498L1242.55 437.211L1258.82 422.502H1320.4L1336.23 465.613L1369.65 501.623L1336.23 487.613L1320.4 449.462L1292 429.624L1254.54 445.393L1223.16 447.427L1173.05 483.543L1122.48 517.116L1008.55 530.342L975.149 552.088L989.662 524.954Z" fill="#0D5F05"/>
<g filter="url(#filter12_f_209_151)">
<path d="M13.4637 -13.9415H1468.14V212.928L1266.69 229.714L1071.32 302.455L993.876 263.795L1071.32 164.604L923.522 117.806L802.046 164.604L664.879 177.321L567.192 135.609L405.224 98.9845L314.117 177.321L164.803 212.928L71.1649 275.495L13.4637 212.928V-13.9415Z" fill="#94AF1C"/>
</g>
<g filter="url(#filter13_f_209_151)">
<path d="M1347.99 -76H1396.58V306.946L1403.35 349.253L1358.97 341.435L1336.54 345.574L1347.99 320.742V-76Z" fill="#111308"/>
</g>
<g filter="url(#filter14_f_209_151)">
<path d="M1120.92 -35.3059H1224.17L1218.61 315.808L1233.29 356.883L1137.12 349.293L1088.53 353.311L1113.33 329.202L1120.92 -35.3059Z" fill="#352A14"/>
</g>
<g filter="url(#filter15_f_209_151)">
<path d="M432.556 -41.41H479.122L475.513 307.728L479.122 345.184L461.08 341.171L437.883 345.184H409.273L421.903 321.105L432.556 -41.41Z" fill="#1B1303"/>
</g>
<g filter="url(#filter16_f_209_151)">
<path d="M658.46 -41.41H701.03L710.148 307.728L716 339.079L694.481 353.322L675.301 342.132L654.25 345.184L664.907 321.105L658.46 -41.41Z" fill="#130E02"/>
</g>
<g filter="url(#filter17_f_209_151)">
<path d="M42.3142 -23.0977H1464.09V105.089L1338.56 76.6028L1273.27 31.3307L1130.54 105.089H1012.1L976.161 70.4987L841.019 31.3307L522.651 48.117L341.955 31.3307L287.291 105.089L81.2878 159.008L23.5867 105.089L42.3142 -23.0977Z" fill="#316800"/>
</g>
<g filter="url(#filter18_f_209_151)">
<path d="M1241.53 -26.1498H1312.25L1321.52 356.796L1331.48 399.103L1266.25 391.286L1233.29 395.424L1250.11 370.592L1241.53 -26.1498Z" fill="#160D02"/>
</g>
<g filter="url(#filter19_f_209_151)">
<path d="M888.091 -23.0977H935.393L948.571 344.416L951.866 383.843L935.393 379.619L914.213 383.843H888.091L899.622 358.497L888.091 -23.0977Z" fill="#201807"/>
</g>
<g filter="url(#filter20_f_209_151)">
<path d="M728.147 -26.1498H775.449L788.628 322.988L791.922 360.444L775.449 356.431L754.269 360.444H728.147L739.679 336.365L728.147 -26.1498Z" fill="#201807"/>
</g>
<g opacity="0.85" filter="url(#filter21_f_209_151)">
<path d="M703.852 -26.1498H817.23L1180.14 -16.4849L1097.64 45.5735L981.223 61.3425L745.863 30.8219L689.68 5.8968L703.852 -26.1498Z" fill="#487B1F"/>
</g>
<g filter="url(#filter22_f_209_151)">
<path d="M1057.15 -42.4274H1125.41C1141.07 112.719 1152.59 183.837 1152.58 328.609L1162.42 369.6L1097.95 362.026L1065.37 366.036L1082 341.975C1085.79 200.308 1067.27 115.808 1057.15 -42.4274Z" fill="#3D2115"/>
</g>
<g filter="url(#filter23_f_209_151)">
<path d="M328.795 -23.0977H425.47L430.025 326.49L444.704 367.565L348.535 359.975L299.945 363.994L324.746 339.884L328.795 -23.0977Z" fill="#352A14"/>
</g>
<g filter="url(#filter24_f_209_151)">
<path d="M217.442 -22.589L293.365 -35.8146L281.56 350.749L293.365 378.756L277.674 384.352L251.86 378.756L185.555 384.352L198.715 359.935C210.959 210.486 216.332 126.715 217.442 -22.589Z" fill="#271E0C"/>
</g>
<g opacity="0.8" filter="url(#filter25_f_209_151)">
<path d="M230.602 -23.0977H609.708V12.001L530.749 55.7471L404.212 75.0768H273.119L230.602 55.7471L209.344 18.1051L230.602 -23.0977Z" fill="#618009"/>
</g>
<g filter="url(#filter26_f_209_151)">
<path d="M-46.7681 -36.3232H58.5111V313.264L73.1895 354.34L45.3512 346.75L-12.3499 354.34L-71.5695 350.768L-46.7681 326.659V-36.3232Z" fill="#1D1403"/>
</g>
<g filter="url(#filter27_f_209_151)">
<path d="M1.31616 286.177L47.882 268.374L128.866 298.385L137.471 320.258L109.126 366.039L1.31616 383.843V286.177Z" fill="#0D5B1D"/>
</g>
<g filter="url(#filter28_f_209_151)">
<path d="M1.31616 286.177L25.1052 346.71L91.4109 349.762L129.372 333.993L109.126 366.039L1.31616 383.843V286.177Z" fill="#085117"/>
</g>
<g filter="url(#filter29_f_209_151)">
<path d="M921.497 57.2731L927.169 147.817L928.042 59.8165L936.769 60.8338L946.805 359.426L938.951 243.957V349.253L926.297 355.357L921.497 57.2731Z" fill="#322911"/>
</g>
<g filter="url(#filter30_f_209_151)">
<path d="M263.502 68.9725L272.106 80.1634L284.254 87.2849L277.168 281.599L288.809 83.7241L275.143 364.513H265.02V328.906L259.959 364.513H255.91L259.959 204.789L248.317 359.935L263.502 68.9725Z" fill="#36280E"/>
</g>
<g filter="url(#filter31_f_209_151)">
<path d="M389.027 85.7589L393.582 214.454L396.113 85.2502L423.951 80.1635V317.206L413.322 112.21V326.363L389.027 286.177V85.7589Z" fill="#493A1C" fill-opacity="0.69"/>
</g>
<g filter="url(#filter32_f_209_151)">
<path d="M1097.64 -13.9415L1125.48 112.719L1104.72 -13.9415H1121.43L1125.48 5.38815V-13.9415L1144.2 171.216L1153.31 352.305L1143.19 266.339L1148.25 360.444L1137.62 358.918L1125.48 162.06L1097.64 -13.9415Z" fill="#4E3422"/>
</g>
<g filter="url(#filter33_f_209_151)">
<path d="M1293.01 -13.9415L1299.46 67.5498L1296.77 -13.9415H1311.81L1319.33 384.856L1312.35 285.03L1305.37 387.912L1293.01 -13.9415Z" fill="#2C210D"/>
</g>
<g filter="url(#filter34_f_209_151)">
<path d="M1188.74 86.7763L1194.82 185.459L1202.41 77.6201L1220.13 63.8859L1216.58 349.762L1210.51 235.818L1200.39 346.201L1188.74 345.184V215.98V86.7763Z" fill="#4A4023"/>
</g>
<g opacity="0.3">
<g style="mix-blend-mode:lighten" opacity="0.3" filter="url(#filter35_f_209_151)">
<path d="M1008.05 359.372L1485.35 1.26379L1539 38.9058L1008.05 359.372Z" fill="#FEF4A9"/>
</g>
<g style="mix-blend-mode:lighten" opacity="0.3" filter="url(#filter36_f_209_151)">
<path d="M649.188 394.979L1408.41 -5.85767L1513.19 10.9286L649.188 394.979Z" fill="#FEF4A9"/>
</g>
<g style="mix-blend-mode:lighten" opacity="0.3" filter="url(#filter37_f_209_151)">
<path d="M144.05 350.215L1372.48 -42.9911L1471.18 -3.31438L144.05 350.215Z" fill="#FEF4A9"/>
</g>
<g style="mix-blend-mode:lighten" opacity="0.3" filter="url(#filter38_f_209_151)">
<path d="M-107 253.113L1271.25 -46.4968L1477.76 -22.5891L-107 253.113Z" fill="#FEF4A9"/>
</g>
<g style="mix-blend-mode:lighten" opacity="0.3" filter="url(#filter39_f_209_151)">
<path d="M423.445 80.1085L986.284 -22.644H1146.73L221.491 120.294H41.302L423.445 80.1085Z" fill="#FEF4A9"/>
</g>
<g style="mix-blend-mode:lighten" opacity="0.5" filter="url(#filter40_f_209_151)">
<path d="M33.7097 328.519L1459.03 -13.9417V328.519L575.423 454.04L33.7097 328.519Z" fill="#FEF4A9"/>
<path d="M33.7097 328.519L1459.03 -13.9417V328.519L575.423 454.04L33.7097 328.519Z" stroke="black"/>
</g>
</g>
<rect opacity="0.3" x="-18.9299" y="-26.1498" width="1490.11" height="1064.15" fill="black"/>
</g>
<rect opacity="0.8" width="1440" height="1024" fill="black"/>
<defs>
<filter id="filter0_f_209_151" x="-131" y="-100" width="1694" height="1162" filterUnits="userSpaceOnUse" color-interpolation-filters="sRGB">
<feFlood flood-opacity="0" result="BackgroundImageFix"/>
<feBlend mode="normal" in="SourceGraphic" in2="BackgroundImageFix" result="shape"/>
<feGaussianBlur stdDeviation="12" result="effect1_foregroundBlur_209_151"/>
</filter>
<filter id="filter1_f_209_151" x="-14.8315" y="319.819" width="1486.97" height="722.181" filterUnits="userSpaceOnUse" color-interpolation-filters="sRGB">
<feFlood flood-opacity="0" result="BackgroundImageFix"/>
<feBlend mode="normal" in="SourceGraphic" in2="BackgroundImageFix" result="shape"/>
<feGaussianBlur stdDeviation="2" result="effect1_foregroundBlur_209_151"/>
</filter>
<filter id="filter2_f_209_151" x="-8.68384" y="729.407" width="1474.68" height="176.163" filterUnits="userSpaceOnUse" color-interpolation-filters="sRGB">
<feFlood flood-opacity="0" result="BackgroundImageFix"/>
<feBlend mode="normal" in="SourceGraphic" in2="BackgroundImageFix" result="shape"/>
<feGaussianBlur stdDeviation="5" result="effect1_foregroundBlur_209_151"/>
</filter>
<filter id="filter3_f_209_151" x="-12.2269" y="471.509" width="996.87" height="131.909" filterUnits="userSpaceOnUse" color-interpolation-filters="sRGB">
<feFlood flood-opacity="0" result="BackgroundImageFix"/>
<feBlend mode="normal" in="SourceGraphic" in2="BackgroundImageFix" result="shape"/>
<feGaussianBlur stdDeviation="5" result="effect1_foregroundBlur_209_151"/>
</filter>
<filter id="filter4_f_209_151" x="648.299" y="621.059" width="817.693" height="75.9543" filterUnits="userSpaceOnUse" color-interpolation-filters="sRGB">
<feFlood flood-opacity="0" result="BackgroundImageFix"/>
<feBlend mode="normal" in="SourceGraphic" in2="BackgroundImageFix" result="shape"/>
<feGaussianBlur stdDeviation="5" result="effect1_foregroundBlur_209_151"/>
</filter>
<filter id="filter5_f_209_151" x="329.424" y="349.427" width="772.645" height="59.1681" filterUnits="userSpaceOnUse" color-interpolation-filters="sRGB">
<feFlood flood-opacity="0" result="BackgroundImageFix"/>
<feBlend mode="normal" in="SourceGraphic" in2="BackgroundImageFix" result="shape"/>
<feGaussianBlur stdDeviation="5" result="effect1_foregroundBlur_209_151"/>
</filter>
<filter id="filter6_f_209_151" x="-3.68384" y="327.975" width="1464.17" height="56.7982" filterUnits="userSpaceOnUse" color-interpolation-filters="sRGB">
<feFlood flood-opacity="0" result="BackgroundImageFix"/>
<feBlend mode="normal" in="SourceGraphic" in2="BackgroundImageFix" result="shape"/>
<feGaussianBlur stdDeviation="2.5" result="effect1_foregroundBlur_209_151"/>
</filter>
<filter id="filter7_f_209_151" x="61.1033" y="713.983" width="1413.05" height="50.6941" filterUnits="userSpaceOnUse" color-interpolation-filters="sRGB">
<feFlood flood-opacity="0" result="BackgroundImageFix"/>
<feBlend mode="normal" in="SourceGraphic" in2="BackgroundImageFix" result="shape"/>
<feGaussianBlur stdDeviation="2.5" result="effect1_foregroundBlur_209_151"/>
</filter>
<filter id="filter8_f_209_151" x="237.305" y="904.392" width="1231.72" height="133.435" filterUnits="userSpaceOnUse" color-interpolation-filters="sRGB">
<feFlood flood-opacity="0" result="BackgroundImageFix"/>
<feBlend mode="normal" in="SourceGraphic" in2="BackgroundImageFix" result="shape"/>
<feGaussianBlur stdDeviation="5" result="effect1_foregroundBlur_209_151"/>
</filter>
<filter id="filter9_f_209_151" x="-3.68384" y="435.306" width="1464.68" height="146.834" filterUnits="userSpaceOnUse" color-interpolation-filters="sRGB">
<feFlood flood-opacity="0" result="BackgroundImageFix"/>
<feBlend mode="normal" in="SourceGraphic" in2="BackgroundImageFix" result="shape"/>
<feGaussianBlur stdDeviation="2.5" result="effect1_foregroundBlur_209_151"/>
</filter>
<filter id="filter10_f_209_151" x="-21.9299" y="747.598" width="414.625" height="149.276" filterUnits="userSpaceOnUse" color-interpolation-filters="sRGB">
<feFlood flood-opacity="0" result="BackgroundImageFix"/>
<feBlend mode="normal" in="SourceGraphic" in2="BackgroundImageFix" result="shape"/>
<feGaussianBlur stdDeviation="1.5" result="effect1_foregroundBlur_209_151"/>
</filter>
<filter id="filter11_f_209_151" x="971.149" y="436.815" width="424.055" height="162.637" filterUnits="userSpaceOnUse" color-interpolation-filters="sRGB">
<feFlood flood-opacity="0" result="BackgroundImageFix"/>
<feBlend mode="normal" in="SourceGraphic" in2="BackgroundImageFix" result="shape"/>
<feGaussianBlur stdDeviation="2" result="effect1_foregroundBlur_209_151"/>
</filter>
<filter id="filter12_f_209_151" x="3.46375" y="-23.9415" width="1474.68" height="336.396" filterUnits="userSpaceOnUse" color-interpolation-filters="sRGB">
<feFlood flood-opacity="0" result="BackgroundImageFix"/>
<feBlend mode="normal" in="SourceGraphic" in2="BackgroundImageFix" result="shape"/>
<feGaussianBlur stdDeviation="5" result="effect1_foregroundBlur_209_151"/>
</filter>
<filter id="filter13_f_209_151" x="1329.54" y="-83" width="80.8118" height="439.253" filterUnits="userSpaceOnUse" color-interpolation-filters="sRGB">
<feFlood flood-opacity="0" result="BackgroundImageFix"/>
<feBlend mode="normal" in="SourceGraphic" in2="BackgroundImageFix" result="shape"/>
<feGaussianBlur stdDeviation="3.5" result="effect1_foregroundBlur_209_151"/>
</filter>
<filter id="filter14_f_209_151" x="1081.53" y="-42.3059" width="158.759" height="406.189" filterUnits="userSpaceOnUse" color-interpolation-filters="sRGB">
<feFlood flood-opacity="0" result="BackgroundImageFix"/>
<feBlend mode="normal" in="SourceGraphic" in2="BackgroundImageFix" result="shape"/>
<feGaussianBlur stdDeviation="3.5" result="effect1_foregroundBlur_209_151"/>
</filter>
<filter id="filter15_f_209_151" x="405.273" y="-45.41" width="77.8488" height="394.594" filterUnits="userSpaceOnUse" color-interpolation-filters="sRGB">
<feFlood flood-opacity="0" result="BackgroundImageFix"/>
<feBlend mode="normal" in="SourceGraphic" in2="BackgroundImageFix" result="shape"/>
<feGaussianBlur stdDeviation="2" result="effect1_foregroundBlur_209_151"/>
</filter>
<filter id="filter16_f_209_151" x="648.25" y="-47.41" width="73.7502" height="406.732" filterUnits="userSpaceOnUse" color-interpolation-filters="sRGB">
<feFlood flood-opacity="0" result="BackgroundImageFix"/>
<feBlend mode="normal" in="SourceGraphic" in2="BackgroundImageFix" result="shape"/>
<feGaussianBlur stdDeviation="3" result="effect1_foregroundBlur_209_151"/>
</filter>
<filter id="filter17_f_209_151" x="13.5867" y="-33.0977" width="1460.5" height="202.106" filterUnits="userSpaceOnUse" color-interpolation-filters="sRGB">
<feFlood flood-opacity="0" result="BackgroundImageFix"/>
<feBlend mode="normal" in="SourceGraphic" in2="BackgroundImageFix" result="shape"/>
<feGaussianBlur stdDeviation="5" result="effect1_foregroundBlur_209_151"/>
</filter>
<filter id="filter18_f_209_151" x="1231.29" y="-28.1498" width="102.193" height="429.253" filterUnits="userSpaceOnUse" color-interpolation-filters="sRGB">
<feFlood flood-opacity="0" result="BackgroundImageFix"/>
<feBlend mode="normal" in="SourceGraphic" in2="BackgroundImageFix" result="shape"/>
<feGaussianBlur stdDeviation="1" result="effect1_foregroundBlur_209_151"/>
</filter>
<filter id="filter19_f_209_151" x="885.091" y="-26.0977" width="69.7749" height="412.941" filterUnits="userSpaceOnUse" color-interpolation-filters="sRGB">
<feFlood flood-opacity="0" result="BackgroundImageFix"/>
<feBlend mode="normal" in="SourceGraphic" in2="BackgroundImageFix" result="shape"/>
<feGaussianBlur stdDeviation="1.5" result="effect1_foregroundBlur_209_151"/>
</filter>
<filter id="filter20_f_209_151" x="724.147" y="-30.1498" width="71.7749" height="394.594" filterUnits="userSpaceOnUse" color-interpolation-filters="sRGB">
<feFlood flood-opacity="0" result="BackgroundImageFix"/>
<feBlend mode="normal" in="SourceGraphic" in2="BackgroundImageFix" result="shape"/>
<feGaussianBlur stdDeviation="2" result="effect1_foregroundBlur_209_151"/>
</filter>
<filter id="filter21_f_209_151" x="686.68" y="-29.1498" width="496.459" height="93.4922" filterUnits="userSpaceOnUse" color-interpolation-filters="sRGB">
<feFlood flood-opacity="0" result="BackgroundImageFix"/>
<feBlend mode="normal" in="SourceGraphic" in2="BackgroundImageFix" result="shape"/>
<feGaussianBlur stdDeviation="1.5" result="effect1_foregroundBlur_209_151"/>
</filter>
<filter id="filter22_f_209_151" x="1052.15" y="-47.4274" width="115.279" height="422.027" filterUnits="userSpaceOnUse" color-interpolation-filters="sRGB">
<feFlood flood-opacity="0" result="BackgroundImageFix"/>
<feBlend mode="normal" in="SourceGraphic" in2="BackgroundImageFix" result="shape"/>
<feGaussianBlur stdDeviation="2.5" result="effect1_foregroundBlur_209_151"/>
</filter>
<filter id="filter23_f_209_151" x="295.945" y="-27.0977" width="152.759" height="398.663" filterUnits="userSpaceOnUse" color-interpolation-filters="sRGB">
<feFlood flood-opacity="0" result="BackgroundImageFix"/>
<feBlend mode="normal" in="SourceGraphic" in2="BackgroundImageFix" result="shape"/>
<feGaussianBlur stdDeviation="2" result="effect1_foregroundBlur_209_151"/>
</filter>
<filter id="filter24_f_209_151" x="183.555" y="-37.8146" width="111.81" height="424.166" filterUnits="userSpaceOnUse" color-interpolation-filters="sRGB">
<feFlood flood-opacity="0" result="BackgroundImageFix"/>
<feBlend mode="normal" in="SourceGraphic" in2="BackgroundImageFix" result="shape"/>
<feGaussianBlur stdDeviation="1" result="effect1_foregroundBlur_209_151"/>
</filter>
<filter id="filter25_f_209_151" x="205.344" y="-27.0977" width="408.365" height="106.174" filterUnits="userSpaceOnUse" color-interpolation-filters="sRGB">
<feFlood flood-opacity="0" result="BackgroundImageFix"/>
<feBlend mode="normal" in="SourceGraphic" in2="BackgroundImageFix" result="shape"/>
<feGaussianBlur stdDeviation="2" result="effect1_foregroundBlur_209_151"/>
</filter>
<filter id="filter26_f_209_151" x="-75.5695" y="-40.3232" width="152.759" height="398.663" filterUnits="userSpaceOnUse" color-interpolation-filters="sRGB">
<feFlood flood-opacity="0" result="BackgroundImageFix"/>
<feBlend mode="normal" in="SourceGraphic" in2="BackgroundImageFix" result="shape"/>
<feGaussianBlur stdDeviation="2" result="effect1_foregroundBlur_209_151"/>
</filter>
<filter id="filter27_f_209_151" x="-0.683838" y="266.374" width="140.154" height="119.469" filterUnits="userSpaceOnUse" color-interpolation-filters="sRGB">
<feFlood flood-opacity="0" result="BackgroundImageFix"/>
<feBlend mode="normal" in="SourceGraphic" in2="BackgroundImageFix" result="shape"/>
<feGaussianBlur stdDeviation="1" result="effect1_foregroundBlur_209_151"/>
</filter>
<filter id="filter28_f_209_151" x="-2.68384" y="282.177" width="136.056" height="105.666" filterUnits="userSpaceOnUse" color-interpolation-filters="sRGB">
<feFlood flood-opacity="0" result="BackgroundImageFix"/>
<feBlend mode="normal" in="SourceGraphic" in2="BackgroundImageFix" result="shape"/>
<feGaussianBlur stdDeviation="2" result="effect1_foregroundBlur_209_151"/>
</filter>
<filter id="filter29_f_209_151" x="917.497" y="53.2731" width="33.3076" height="310.153" filterUnits="userSpaceOnUse" color-interpolation-filters="sRGB">
<feFlood flood-opacity="0" result="BackgroundImageFix"/>
<feBlend mode="normal" in="SourceGraphic" in2="BackgroundImageFix" result="shape"/>
<feGaussianBlur stdDeviation="2" result="effect1_foregroundBlur_209_151"/>
</filter>
<filter id="filter30_f_209_151" x="244.317" y="64.9725" width="48.4919" height="303.541" filterUnits="userSpaceOnUse" color-interpolation-filters="sRGB">
<feFlood flood-opacity="0" result="BackgroundImageFix"/>
<feBlend mode="normal" in="SourceGraphic" in2="BackgroundImageFix" result="shape"/>
<feGaussianBlur stdDeviation="2" result="effect1_foregroundBlur_209_151"/>
</filter>
<filter id="filter31_f_209_151" x="385.027" y="76.1635" width="42.9243" height="254.199" filterUnits="userSpaceOnUse" color-interpolation-filters="sRGB">
<feFlood flood-opacity="0" result="BackgroundImageFix"/>
<feBlend mode="normal" in="SourceGraphic" in2="BackgroundImageFix" result="shape"/>
<feGaussianBlur stdDeviation="2" result="effect1_foregroundBlur_209_151"/>
</filter>
<filter id="filter32_f_209_151" x="1093.64" y="-17.9415" width="63.6765" height="382.385" filterUnits="userSpaceOnUse" color-interpolation-filters="sRGB">
<feFlood flood-opacity="0" result="BackgroundImageFix"/>
<feBlend mode="normal" in="SourceGraphic" in2="BackgroundImageFix" result="shape"/>
<feGaussianBlur stdDeviation="2" result="effect1_foregroundBlur_209_151"/>
</filter>
<filter id="filter33_f_209_151" x="1289.01" y="-17.9415" width="34.3198" height="409.854" filterUnits="userSpaceOnUse" color-interpolation-filters="sRGB">
<feFlood flood-opacity="0" result="BackgroundImageFix"/>
<feBlend mode="normal" in="SourceGraphic" in2="BackgroundImageFix" result="shape"/>
<feGaussianBlur stdDeviation="2" result="effect1_foregroundBlur_209_151"/>
</filter>
<filter id="filter34_f_209_151" x="1178.74" y="53.8859" width="51.3813" height="305.876" filterUnits="userSpaceOnUse" color-interpolation-filters="sRGB">
<feFlood flood-opacity="0" result="BackgroundImageFix"/>
<feBlend mode="normal" in="SourceGraphic" in2="BackgroundImageFix" result="shape"/>
<feGaussianBlur stdDeviation="5" result="effect1_foregroundBlur_209_151"/>
</filter>
<filter id="filter35_f_209_151" x="988.049" y="-18.7362" width="570.951" height="398.108" filterUnits="userSpaceOnUse" color-interpolation-filters="sRGB">
<feFlood flood-opacity="0" result="BackgroundImageFix"/>
<feBlend mode="normal" in="SourceGraphic" in2="BackgroundImageFix" result="shape"/>
<feGaussianBlur stdDeviation="10" result="effect1_foregroundBlur_209_151"/>
</filter>
<filter id="filter36_f_209_151" x="629.188" y="-25.8577" width="903.998" height="440.836" filterUnits="userSpaceOnUse" color-interpolation-filters="sRGB">
<feFlood flood-opacity="0" result="BackgroundImageFix"/>
<feBlend mode="normal" in="SourceGraphic" in2="BackgroundImageFix" result="shape"/>
<feGaussianBlur stdDeviation="10" result="effect1_foregroundBlur_209_151"/>
</filter>
<filter id="filter37_f_209_151" x="124.05" y="-62.9911" width="1367.13" height="433.206" filterUnits="userSpaceOnUse" color-interpolation-filters="sRGB">
<feFlood flood-opacity="0" result="BackgroundImageFix"/>
<feBlend mode="normal" in="SourceGraphic" in2="BackgroundImageFix" result="shape"/>
<feGaussianBlur stdDeviation="10" result="effect1_foregroundBlur_209_151"/>
</filter>
<filter id="filter38_f_209_151" x="-127" y="-66.4968" width="1624.76" height="339.61" filterUnits="userSpaceOnUse" color-interpolation-filters="sRGB">
<feFlood flood-opacity="0" result="BackgroundImageFix"/>
<feBlend mode="normal" in="SourceGraphic" in2="BackgroundImageFix" result="shape"/>
<feGaussianBlur stdDeviation="10" result="effect1_foregroundBlur_209_151"/>
</filter>
<filter id="filter39_f_209_151" x="21.302" y="-42.644" width="1145.43" height="182.938" filterUnits="userSpaceOnUse" color-interpolation-filters="sRGB">
<feFlood flood-opacity="0" result="BackgroundImageFix"/>
<feBlend mode="normal" in="SourceGraphic" in2="BackgroundImageFix" result="shape"/>
<feGaussianBlur stdDeviation="10" result="effect1_foregroundBlur_209_151"/>
</filter>
<filter id="filter40_f_209_151" x="-66.4071" y="-114.576" width="1625.94" height="669.124" filterUnits="userSpaceOnUse" color-interpolation-filters="sRGB">
<feFlood flood-opacity="0" result="BackgroundImageFix"/>
<feBlend mode="normal" in="SourceGraphic" in2="BackgroundImageFix" result="shape"/>
<feGaussianBlur stdDeviation="50" result="effect1_foregroundBlur_209_151"/>
</filter>
</defs>
</svg>
