<svg width="300" height="300" viewBox="0 0 300 300" fill="none" xmlns="http://www.w3.org/2000/svg">
<g clip-path="url(#clip0_208_150)">
<g style="mix-blend-mode:exclusion">
<path d="M300 150C300 232.843 232.843 300 150 300C67.1573 300 0 232.843 0 150C0 67.1573 67.1573 0 150 0C232.843 0 300 67.1573 300 150Z" fill="#D9D9D9"/>
</g>
<path d="M119 80L157 50L184 44L182 47L170.5 58.5L161.5 67L151.5 76.5L139.5 85.5L130.5 135L135 141V170.349L130.5 205L84.5 252.5L87.5 291.5L67 283.5L51.5 268.5L46.5 257V244.5L63.5 195.5L75.5 164L91 155.5L105 140.5L110 119.5V101L119 80Z" fill="#7EEDF4"/>
<path d="M84 251.5L88.5 246.5L127 207L119.5 251.5L103 294L87 290.5L84 251.5Z" fill="#0033CE"/>
<path d="M165 90.5L213.5 80L230 54L240 57.5L243.5 64.5L208 86L194.5 102.5L190 120.5L176.5 114.5L165 105V90.5Z" fill="#F5F6F0"/>
<path d="M211 84L221.5 77.5L228.5 72L243.5 65L253 86V110L243.5 130.5L230.5 143.5L236.5 110L223 94.5L211 84Z" fill="#357493"/>
<path d="M165 76L177 71.5H195L203 67.5L200 54H210.5L225 57.5L232 54L225 69L216.5 80L169.5 90L165 76Z" fill="#0E080B"/>
<path d="M184 44L219 41L234.5 49.5L240 57.5L234.5 56.5L227.5 60L213 56.5H202.5L181 48L184 44Z" fill="#F2F801"/>
<path d="M180.5 47L188 50L196.5 53L182.5 61.5L173 70L161.5 79.5H147L166 61.5L180.5 47Z" fill="#02F802"/>
<path d="M163 78L186.5 57.5L197 53L201.5 55L204.5 68.5L197 72.5H178.5L165.5 78.5L163 78Z" fill="#EFEFE3"/>
<path d="M187 60.5L190 59H194L197.5 61.5L198.5 65V69L195.5 70.5L192 71.5L189 70.5L187 69L186 65L187 60.5Z" fill="#560408"/>
<path d="M188 61L192 60L196 61L197.5 65.5L196 69L192 70L188 69L187 65L188 61Z" fill="#D5DEA9"/>
<path d="M190 63.5L191.5 63L193 63.5L193.5 64.5V66L192 67L190.5 66.5L190 65V63.5Z" fill="#0E080B"/>
<path d="M174 87L170.5 93L168.5 98.5L176 113L194 121L212.5 133.5L222.5 141.5L228 172L236 199L207.5 303L99 306L119 251.5L133.5 172V142.5L129 136.5L131 116L134.5 101.5L138 86.5L149 77.5L165.5 78L174 87Z" fill="#FECE00"/>
<path d="M204 90.5L212 98L218.5 112.5L233 116L221 130.5L207 135L189 123L191.5 107L204 90.5Z" fill="#0D3F5A"/>
<path d="M220 154.5L223 142L235.5 154.5L241.5 178L246.5 193.5V216L241.5 256.5L235.5 288.5L211 291L235.5 200L227 168.5L220 154.5Z" fill="#58E4F3"/>
</g>
<defs>
<clipPath id="clip0_208_150">
<rect width="300" height="300" rx="150" fill="white"/>
</clipPath>
</defs>
</svg>
