<svg width="1440" height="1024" viewBox="0 0 1440 1024" fill="none" xmlns="http://www.w3.org/2000/svg">
<g filter="url(#filter0_f_209_153)">
<g filter="url(#filter1_f_209_153)">
<path d="M-10.8315 323.819L169.418 334.11L422.589 323.819L740.978 334.11L1044.99 341.828L1249.37 326.392L1468.14 335.139V1029.77L-10.8315 1038V323.819Z" fill="#8B3507"/>
</g>
<g style="mix-blend-mode:color-burn" filter="url(#filter2_f_209_153)">
<path d="M1.31616 739.407L838.995 759.246H1455.99V895.571L899.226 814.183L432.05 837.073L1.31616 876.75V739.407Z" fill="#F7EA8F"/>
</g>
<g style="mix-blend-mode:color-burn" opacity="0.7" filter="url(#filter3_f_209_153)">
<path d="M1.31612 481.509L412.31 508.977L974.643 563.406L790.91 593.417H575.796L-2.22693 569.001L1.31612 481.509Z" fill="#F7EA8F"/>
</g>
<g style="mix-blend-mode:color-burn" filter="url(#filter4_f_209_153)">
<path d="M658.299 651.08L1455.99 631.059V678.8L1027.26 687.014L658.299 651.08Z" fill="#F4E261"/>
</g>
<g style="mix-blend-mode:color-burn" filter="url(#filter5_f_209_153)">
<path d="M339.424 359.427L1092.07 379.314L918.46 398.595L570.735 398.595L339.424 359.427Z" fill="#EFDF6E"/>
</g>
<g style="mix-blend-mode:soft-light" opacity="0.3" filter="url(#filter6_f_209_153)">
<path d="M1.31616 332.975H472.542L1452.95 362.479L1455.49 379.774H1000.46L1.31616 350.27V332.975Z" fill="#FEF4A9"/>
<path d="M1.81616 333.475H472.542L1452.52 362.966L1454.91 379.274H1000.46L1.81616 349.785V333.475Z" stroke="#FEF4A9"/>
</g>
<g style="mix-blend-mode:soft-light" opacity="0.8" filter="url(#filter7_f_209_153)">
<path d="M211.368 718.983H686.643L1469.15 759.677H1282.89H917.954L66.1033 733.226L211.368 718.983Z" fill="#FEF4A9"/>
</g>
<g style="mix-blend-mode:soft-light" opacity="0.6" filter="url(#filter8_f_209_153)">
<path d="M307.537 940.843L994.383 914.392L1459.03 974.924V1027.83H621.856L247.305 974.924L307.537 940.843Z" fill="#FEF4A9"/>
</g>
<g style="mix-blend-mode:soft-light" opacity="0.6" filter="url(#filter9_f_209_153)">
<path d="M1.31616 446.41L166.827 440.306L374.349 462.179L1048.54 480.491L1455.99 530.85V577.14L951.36 562.388L437.111 513.555L1.31616 480.491V446.41Z" fill="#FEF4A9"/>
</g>
<path d="M48.8354 791.237L90.85 738.899L212.15 753.852L241.289 791.237L325.996 843.575L370.721 856.489L389.695 893.874H341.449L212.15 875.521H90.85L-18.9299 856.489L-10.1204 823.863L38.6706 814.347L48.8354 791.237Z" fill="#262820"/>
<path d="M90.1724 738.899L210.795 753.173L243.322 791.916L341.582 853.091L377.978 876.449L283.106 863.534L189.59 762.937L63.0663 772.884L90.1724 738.899Z" fill="#0D5F05"/>
<g style="mix-blend-mode:darken" opacity="0.6" filter="url(#filter10_f_209_153)">
<path d="M48.8354 791.237L80.7816 750.598L145.063 785.697L172.395 776.541L205.801 836.056L284.254 849.281L379.41 878.785L389.695 893.874H341.449L212.15 875.522H90.85L-18.9299 856.489L-10.1204 823.863L38.6706 814.347L48.8354 791.237Z" fill="#1F1501"/>
</g>
<path d="M989.662 524.954L1122.48 501.623L1152.83 457.498L1242.55 437.211L1258.82 422.502H1320.4L1336.23 465.613L1369.65 501.623L1391.2 595.452H1364.38L1283.45 581.251H1101.37L975.149 568.318V552.088L989.662 524.954Z" fill="#27211C"/>
<g style="mix-blend-mode:darken" filter="url(#filter11_f_209_153)">
<path d="M1081.95 546.111L1122.94 506.942L1217.59 526.272L1251.51 515.59L1239.87 501.623L1275.3 465.613L1326.42 440.815L1348.18 506.942L1374 526.272L1391.2 595.452H1364.38L1283.45 581.251H1101.37L975.149 567.475L1081.95 546.111Z" fill="#1F1500"/>
</g>
<path d="M989.662 524.954L1122.48 501.623L1152.83 457.498L1242.55 437.211L1258.82 422.502H1320.4L1336.23 465.613L1369.65 501.623L1336.23 487.613L1320.4 449.462L1292 429.624L1254.54 445.393L1223.16 447.427L1173.05 483.543L1122.48 517.116L1008.55 530.342L975.149 552.088L989.662 524.954Z" fill="#0D5F05"/>
<g filter="url(#filter12_f_209_153)">
<path d="M13.4637 -13.9415H1468.14V212.928L1266.69 229.714L1071.32 302.455L993.876 263.795L1071.32 164.604L923.522 117.806L802.046 164.604L664.879 177.321L567.192 135.609L405.224 98.9845L314.117 177.321L164.803 212.928L71.1649 275.495L13.4637 212.928V-13.9415Z" fill="#94AF1C"/>
</g>
<g filter="url(#filter13_f_209_153)">
<path d="M1347.99 -76H1396.58V306.946L1403.35 349.253L1358.97 341.435L1336.54 345.574L1347.99 320.742V-76Z" fill="#111308"/>
</g>
<g filter="url(#filter14_f_209_153)">
<path d="M1120.92 -35.3059H1224.17L1218.61 315.808L1233.29 356.883L1137.12 349.293L1088.53 353.311L1113.33 329.202L1120.92 -35.3059Z" fill="#352A14"/>
</g>
<g filter="url(#filter15_f_209_153)">
<path d="M432.556 -41.41H479.122L475.513 307.728L479.122 345.184L461.08 341.171L437.883 345.184H409.273L421.903 321.105L432.556 -41.41Z" fill="#1B1303"/>
</g>
<g filter="url(#filter16_f_209_153)">
<path d="M658.46 -41.41H701.03L710.148 307.728L716 339.079L694.481 353.322L675.301 342.132L654.25 345.184L664.907 321.105L658.46 -41.41Z" fill="#130E02"/>
</g>
<g filter="url(#filter17_f_209_153)">
<path d="M42.3142 -23.0977H1464.09V105.089L1338.56 76.6027L1273.27 31.3306L1130.54 105.089H1012.1L976.161 70.4986L841.019 31.3306L522.651 48.1169L341.955 31.3306L287.291 105.089L81.2878 159.008L23.5867 105.089L42.3142 -23.0977Z" fill="#316800"/>
</g>
<g filter="url(#filter18_f_209_153)">
<path d="M1241.53 -26.1497H1312.25L1321.52 356.796L1331.48 399.103L1266.25 391.286L1233.29 395.424L1250.11 370.592L1241.53 -26.1497Z" fill="#160D02"/>
</g>
<g filter="url(#filter19_f_209_153)">
<path d="M888.091 -23.0977H935.393L948.571 344.416L951.866 383.843L935.393 379.619L914.213 383.843H888.091L899.622 358.497L888.091 -23.0977Z" fill="#201807"/>
</g>
<g filter="url(#filter20_f_209_153)">
<path d="M728.147 -26.1497H775.449L788.628 322.988L791.922 360.444L775.449 356.431L754.269 360.444H728.147L739.679 336.365L728.147 -26.1497Z" fill="#201807"/>
</g>
<g opacity="0.85" filter="url(#filter21_f_209_153)">
<path d="M703.852 -26.1497H817.23L1180.14 -16.4849L1097.64 45.5735L981.223 61.3425L745.863 30.8219L689.68 5.89683L703.852 -26.1497Z" fill="#487B1F"/>
</g>
<g filter="url(#filter22_f_209_153)">
<path d="M1057.15 -42.4274H1125.41C1141.07 112.719 1152.59 183.837 1152.58 328.609L1162.42 369.6L1097.95 362.026L1065.37 366.036L1082 341.975C1085.79 200.308 1067.27 115.808 1057.15 -42.4274Z" fill="#3D2115"/>
</g>
<g filter="url(#filter23_f_209_153)">
<path d="M328.795 -23.0977H425.47L430.025 326.49L444.704 367.565L348.535 359.975L299.945 363.994L324.746 339.884L328.795 -23.0977Z" fill="#352A14"/>
</g>
<g filter="url(#filter24_f_209_153)">
<path d="M217.442 -22.5891L293.365 -35.8146L281.56 350.749L293.365 378.756L277.674 384.352L251.86 378.756L185.555 384.352L198.715 359.935C210.959 210.486 216.332 126.715 217.442 -22.5891Z" fill="#271E0C"/>
</g>
<g opacity="0.8" filter="url(#filter25_f_209_153)">
<path d="M230.602 -23.0977H609.708V12.0009L530.749 55.747L404.212 75.0767H273.119L230.602 55.747L209.344 18.105L230.602 -23.0977Z" fill="#618009"/>
</g>
<g filter="url(#filter26_f_209_153)">
<path d="M-46.7681 -36.3233H58.5111V313.264L73.1895 354.34L45.3512 346.75L-12.3499 354.34L-71.5695 350.768L-46.7681 326.658V-36.3233Z" fill="#1D1403"/>
</g>
<g filter="url(#filter27_f_209_153)">
<path d="M1.31616 286.177L47.882 268.374L128.866 298.385L137.471 320.258L109.126 366.039L1.31616 383.843V286.177Z" fill="#0D5B1D"/>
</g>
<g filter="url(#filter28_f_209_153)">
<path d="M1.31616 286.177L25.1052 346.71L91.4109 349.762L129.372 333.993L109.126 366.039L1.31616 383.843V286.177Z" fill="#085117"/>
</g>
<g filter="url(#filter29_f_209_153)">
<path d="M921.497 57.2731L927.169 147.817L928.042 59.8165L936.769 60.8338L946.805 359.426L938.951 243.957V349.253L926.297 355.357L921.497 57.2731Z" fill="#322911"/>
</g>
<g filter="url(#filter30_f_209_153)">
<path d="M263.502 68.9726L272.106 80.1635L284.254 87.2849L277.168 281.599L288.809 83.7242L275.143 364.513H265.02V328.906L259.959 364.513H255.91L259.959 204.789L248.317 359.935L263.502 68.9726Z" fill="#36280E"/>
</g>
<g filter="url(#filter31_f_209_153)">
<path d="M389.027 85.7589L393.582 214.454L396.113 85.2502L423.951 80.1635V317.206L413.322 112.21V326.363L389.027 286.177V85.7589Z" fill="#493A1C" fill-opacity="0.69"/>
</g>
<g filter="url(#filter32_f_209_153)">
<path d="M1097.64 -13.9415L1125.48 112.719L1104.72 -13.9415H1121.43L1125.48 5.38815V-13.9415L1144.2 171.216L1153.31 352.305L1143.19 266.339L1148.25 360.444L1137.62 358.918L1125.48 162.06L1097.64 -13.9415Z" fill="#4E3422"/>
</g>
<g filter="url(#filter33_f_209_153)">
<path d="M1293.01 -13.9415L1299.46 67.5498L1296.77 -13.9415H1311.81L1319.33 384.856L1312.35 285.03L1305.37 387.912L1293.01 -13.9415Z" fill="#2C210D"/>
</g>
<g filter="url(#filter34_f_209_153)">
<path d="M1188.74 86.7763L1194.82 185.459L1202.41 77.6201L1220.13 63.8859L1216.58 349.762L1210.51 235.818L1200.39 346.201L1188.74 345.184V215.98V86.7763Z" fill="#4A4023"/>
</g>
<g opacity="0.3">
<g style="mix-blend-mode:lighten" opacity="0.3" filter="url(#filter35_f_209_153)">
<path d="M1008.05 359.372L1485.35 1.26379L1539 38.9058L1008.05 359.372Z" fill="#FEF4A9"/>
</g>
<g style="mix-blend-mode:lighten" opacity="0.3" filter="url(#filter36_f_209_153)">
<path d="M649.188 394.979L1408.41 -5.85767L1513.19 10.9286L649.188 394.979Z" fill="#FEF4A9"/>
</g>
<g style="mix-blend-mode:lighten" opacity="0.3" filter="url(#filter37_f_209_153)">
<path d="M144.05 350.215L1372.48 -42.991L1471.18 -3.31429L144.05 350.215Z" fill="#FEF4A9"/>
</g>
<g style="mix-blend-mode:lighten" opacity="0.3" filter="url(#filter38_f_209_153)">
<path d="M-107 253.113L1271.25 -46.4968L1477.76 -22.589L-107 253.113Z" fill="#FEF4A9"/>
</g>
<g style="mix-blend-mode:lighten" opacity="0.3" filter="url(#filter39_f_209_153)">
<path d="M423.445 80.1086L986.284 -22.644H1146.73L221.491 120.294H41.302L423.445 80.1086Z" fill="#FEF4A9"/>
</g>
<g style="mix-blend-mode:lighten" opacity="0.5" filter="url(#filter40_f_209_153)">
<path d="M33.7097 328.519L1459.03 -13.9416V328.519L575.423 454.04L33.7097 328.519Z" fill="#FEF4A9"/>
<path d="M33.7097 328.519L1459.03 -13.9416V328.519L575.423 454.04L33.7097 328.519Z" stroke="black"/>
</g>
</g>
<rect opacity="0.3" x="-18.9299" y="-26.1497" width="1490.11" height="1064.15" fill="black"/>
</g>
<rect opacity="0.8" width="1440" height="1024" fill="black"/>
<line x1="446.5" y1="130" x2="446.5" y2="893.01" stroke="white" stroke-width="3"/>
<path d="M220.185 354.44C220.185 356.627 219.198 358.467 217.225 359.96C215.252 361.427 212.985 362.16 210.425 362.16C207.892 362.16 205.798 361.507 204.145 360.2C202.492 358.867 201.665 357.613 201.665 356.44C201.665 355.64 201.905 355.24 202.385 355.24C202.812 355.24 203.652 355.88 204.905 357.16C205.385 357.613 206.025 358.04 206.825 358.44C207.652 358.84 208.518 359.04 209.425 359.04C211.292 359.04 212.945 358.56 214.385 357.6C215.852 356.64 216.585 355.6 216.585 354.48C216.585 353.76 216.105 352.84 215.145 351.72C214.185 350.6 213.118 349.547 211.945 348.56C210.798 347.547 209.745 346.467 208.785 345.32C207.825 344.173 207.345 343.267 207.345 342.6C207.345 341.933 207.478 341.227 207.745 340.48C208.012 339.733 208.305 339.187 208.625 338.84C209.665 337.693 211.278 336.64 213.465 335.68C215.678 334.72 217.532 334.24 219.025 334.24C219.798 334.24 220.452 334.493 220.985 335C221.518 335.507 221.785 336.04 221.785 336.6C221.785 336.867 221.505 337.08 220.945 337.24C220.385 337.4 219.532 337.613 218.385 337.88C217.265 338.12 216.265 338.413 215.385 338.76C212.318 339.933 210.785 341.067 210.785 342.16C210.785 342.747 212.345 344.387 215.465 347.08C216.665 348.12 217.745 349.333 218.705 350.72C219.692 352.08 220.185 353.32 220.185 354.44ZM239.915 349.2C239.915 350.613 239.142 351.773 237.595 352.68C236.075 353.56 234.342 354 232.395 354C230.475 354 228.728 353.787 227.155 353.36C226.782 354.533 226.595 355.587 226.595 356.52C226.595 357.427 226.875 358.133 227.435 358.64C228.022 359.147 228.968 359.4 230.275 359.4C231.608 359.4 232.968 359.173 234.355 358.72C235.768 358.24 236.542 358 236.675 358C237.368 358 237.715 358.267 237.715 358.8C237.715 359.52 236.902 360.307 235.275 361.16C233.648 361.987 232.062 362.4 230.515 362.4C228.435 362.4 226.742 361.787 225.435 360.56C224.128 359.307 223.475 357.733 223.475 355.84C223.475 353.947 223.982 351.973 224.995 349.92C226.008 347.84 227.315 346.093 228.915 344.68C230.515 343.267 232.102 342.56 233.675 342.56C235.248 342.56 236.675 343.307 237.955 344.8C239.262 346.293 239.915 347.76 239.915 349.2ZM233.875 345.72C232.888 345.72 231.862 346.24 230.795 347.28C229.728 348.293 228.822 349.56 228.075 351.08C229.142 351.32 230.355 351.44 231.715 351.44C233.075 351.44 234.262 351.227 235.275 350.8C236.288 350.347 236.795 349.76 236.795 349.04C236.795 348.32 236.462 347.587 235.795 346.84C235.155 346.093 234.515 345.72 233.875 345.72ZM246.443 358.4C246.443 358.907 246.736 359.16 247.323 359.16C248.336 359.16 249.563 358.88 251.003 358.32C252.469 357.733 253.283 357.44 253.443 357.44C253.923 357.44 254.163 357.693 254.163 358.2C254.163 358.973 253.363 359.867 251.763 360.88C250.189 361.893 248.749 362.4 247.443 362.4C246.163 362.4 245.096 362.053 244.243 361.36C243.389 360.64 242.963 359.907 242.963 359.16C242.963 358.413 243.123 357.467 243.443 356.32C243.763 355.147 244.216 353.613 244.803 351.72C245.416 349.8 245.896 348.213 246.243 346.96C244.989 347.253 244.149 347.4 243.723 347.4C243.296 347.4 242.869 347.187 242.443 346.76C242.043 346.307 241.843 345.88 241.843 345.48C241.843 344.84 243.576 344.227 247.043 343.64C247.523 341.427 247.763 339.467 247.763 337.76C247.763 336.96 248.029 336.56 248.563 336.56C249.016 336.56 249.576 336.853 250.243 337.44C250.909 338 251.243 338.64 251.243 339.36C251.243 340.08 251.016 341.347 250.563 343.16C252.083 343.027 253.296 342.96 254.203 342.96C255.803 342.96 256.603 343.307 256.603 344C256.603 344.4 256.163 344.733 255.283 345C254.429 345.267 252.616 345.68 249.843 346.24C249.283 348.347 248.576 350.76 247.723 353.48C246.869 356.173 246.443 357.813 246.443 358.4ZM261.911 358.4C261.911 358.907 262.205 359.16 262.791 359.16C263.805 359.16 265.031 358.88 266.471 358.32C267.938 357.733 268.751 357.44 268.911 357.44C269.391 357.44 269.631 357.693 269.631 358.2C269.631 358.973 268.831 359.867 267.231 360.88C265.658 361.893 264.218 362.4 262.911 362.4C261.631 362.4 260.565 362.053 259.711 361.36C258.858 360.64 258.431 359.907 258.431 359.16C258.431 358.413 258.591 357.467 258.911 356.32C259.231 355.147 259.685 353.613 260.271 351.72C260.885 349.8 261.365 348.213 261.711 346.96C260.458 347.253 259.618 347.4 259.191 347.4C258.765 347.4 258.338 347.187 257.911 346.76C257.511 346.307 257.311 345.88 257.311 345.48C257.311 344.84 259.045 344.227 262.511 343.64C262.991 341.427 263.231 339.467 263.231 337.76C263.231 336.96 263.498 336.56 264.031 336.56C264.485 336.56 265.045 336.853 265.711 337.44C266.378 338 266.711 338.64 266.711 339.36C266.711 340.08 266.485 341.347 266.031 343.16C267.551 343.027 268.765 342.96 269.671 342.96C271.271 342.96 272.071 343.307 272.071 344C272.071 344.4 271.631 344.733 270.751 345C269.898 345.267 268.085 345.68 265.311 346.24C264.751 348.347 264.045 350.76 263.191 353.48C262.338 356.173 261.911 357.813 261.911 358.4ZM278.02 336.88C278.02 336.347 278.233 335.84 278.66 335.36C279.087 334.88 279.513 334.64 279.94 334.64C280.393 334.64 280.927 335.187 281.54 336.28C282.153 337.347 282.46 338.24 282.46 338.96C282.46 339.227 282.34 339.467 282.1 339.68C281.86 339.893 281.607 340 281.34 340C280.7 340 279.98 339.613 279.18 338.84C278.407 338.067 278.02 337.413 278.02 336.88ZM277.82 342.56C278.327 342.56 278.807 342.867 279.26 343.48C279.713 344.093 279.94 344.693 279.94 345.28C279.94 345.867 279.553 347.627 278.78 350.56C278.007 353.467 277.033 356.733 275.86 360.36C275.407 361.693 274.833 362.36 274.14 362.36C273.767 362.36 273.447 362.213 273.18 361.92C272.913 361.6 272.78 361.253 272.78 360.88C272.78 360.48 272.873 359.867 273.06 359.04C273.273 358.187 273.567 357.067 273.94 355.68C274.34 354.267 274.647 353.12 274.86 352.24C275.1 351.36 275.34 350.373 275.58 349.28C275.82 348.16 276.007 347.267 276.14 346.6C276.3 345.907 276.473 345.213 276.66 344.52C277.033 343.213 277.42 342.56 277.82 342.56ZM286.351 355.44C288.911 351.093 290.991 347.867 292.591 345.76C294.218 343.627 295.538 342.56 296.551 342.56C297.591 342.56 298.565 343.107 299.471 344.2C300.405 345.293 300.871 346.453 300.871 347.68C300.871 349.6 300.431 351.947 299.551 354.72C297.951 359.84 296.511 362.4 295.231 362.4C294.645 362.4 294.351 362 294.351 361.2C294.351 360.64 294.631 359.507 295.191 357.8C295.778 356.067 296.311 354.373 296.791 352.72C297.298 351.04 297.551 349.787 297.551 348.96C297.551 348.107 297.418 347.48 297.151 347.08C296.911 346.68 296.658 346.48 296.391 346.48C296.151 346.48 295.898 346.56 295.631 346.72C295.365 346.88 295.058 347.147 294.711 347.52C294.391 347.893 294.085 348.267 293.791 348.64C293.498 348.987 293.125 349.493 292.671 350.16C292.245 350.827 291.885 351.4 291.591 351.88C291.298 352.333 290.871 353 290.311 353.88C289.751 354.76 289.325 355.427 289.031 355.88C288.738 356.333 288.351 356.947 287.871 357.72C287.391 358.493 287.005 359.093 286.711 359.52C286.445 359.947 286.138 360.413 285.791 360.92C285.125 361.907 284.591 362.4 284.191 362.4C283.818 362.4 283.378 362.107 282.871 361.52C282.365 360.907 282.111 360.373 282.111 359.92C282.111 359.787 282.205 359.427 282.391 358.84C282.898 357.293 283.458 355.387 284.071 353.12C284.685 350.827 285.018 348.227 285.071 345.32C285.151 343.373 285.431 342.4 285.911 342.4C286.498 342.4 287.085 342.707 287.671 343.32C288.258 343.933 288.551 344.613 288.551 345.36C288.551 346.08 288.325 347.493 287.871 349.6C287.445 351.68 286.938 353.627 286.351 355.44ZM319.6 351.6C319.6 352.667 319.133 353.88 318.2 355.24C317.48 356.867 316.706 359.213 315.88 362.28C315.053 365.32 314.36 367.493 313.8 368.8C312.68 371.52 310.96 372.88 308.64 372.88C306.746 372.88 305.146 372.36 303.84 371.32C302.56 370.307 301.92 369.293 301.92 368.28C301.92 367.853 302.053 367.427 302.32 367C302.56 366.573 302.813 366.36 303.08 366.36C303.373 366.36 303.693 366.56 304.04 366.96C304.386 367.36 304.706 367.787 305 368.24C305.32 368.72 305.786 369.16 306.4 369.56C307.04 369.96 307.653 370.16 308.24 370.16C308.826 370.16 309.266 370.067 309.56 369.88C309.853 369.72 310.133 369.44 310.4 369.04C310.666 368.667 310.893 368.28 311.08 367.88C311.266 367.507 311.466 366.96 311.68 366.24C311.92 365.547 312.106 364.947 312.24 364.44C312.373 363.933 312.56 363.227 312.8 362.32C313.04 361.387 313.24 360.64 313.4 360.08C311.32 361.627 309.626 362.4 308.32 362.4C307.013 362.4 305.88 361.88 304.92 360.84C303.96 359.773 303.48 358.547 303.48 357.16C303.48 355.747 304 353.88 305.04 351.56C306.106 349.24 307.533 347.16 309.32 345.32C311.106 343.48 312.853 342.56 314.56 342.56C315.653 342.56 316.573 342.973 317.32 343.8C318.546 345.16 319.16 347.093 319.16 349.6C319.16 349.92 319.146 350.147 319.12 350.28C319.44 350.733 319.6 351.173 319.6 351.6ZM306.72 357.56C306.72 358.013 306.866 358.387 307.16 358.68C307.453 358.947 307.826 359.08 308.28 359.08C309.613 359.08 311.186 358.293 313 356.72C314.813 355.12 316.093 353.267 316.84 351.16C316.733 350.813 316.64 350.28 316.56 349.56C316.48 348.84 316.4 348.267 316.32 347.84C316.24 347.413 316.066 346.987 315.8 346.56C315.533 346.107 315.186 345.88 314.76 345.88C313.72 345.88 312.546 346.627 311.24 348.12C309.933 349.613 308.853 351.28 308 353.12C307.146 354.96 306.72 356.44 306.72 357.56ZM334.184 342.56C335.091 342.56 335.944 343.067 336.744 344.08C337.544 345.067 337.944 345.933 337.944 346.68C337.944 347.133 337.731 347.36 337.304 347.36C337.011 347.36 336.557 347.133 335.944 346.68C335.331 346.2 334.704 345.96 334.064 345.96C333.424 345.96 332.411 346.333 331.024 347.08C329.664 347.827 328.984 348.613 328.984 349.44C328.984 350.053 330.211 351.107 332.664 352.6C333.597 353.187 334.437 353.947 335.184 354.88C335.957 355.787 336.344 356.773 336.344 357.84C336.344 358.88 335.611 359.907 334.144 360.92C332.704 361.907 331.011 362.4 329.064 362.4C327.144 362.4 325.437 361.933 323.944 361C322.477 360.067 321.744 359.187 321.744 358.36C321.744 358.013 321.824 357.747 321.984 357.56C322.171 357.347 322.397 357.24 322.664 357.24C322.931 357.24 323.304 357.413 323.784 357.76C325.224 358.8 326.717 359.32 328.264 359.32C329.837 359.32 330.971 359.147 331.664 358.8C332.357 358.427 332.704 357.947 332.704 357.36C332.704 356.747 332.317 356.107 331.544 355.44C330.771 354.747 329.917 354.133 328.984 353.6C328.077 353.067 327.237 352.413 326.464 351.64C325.691 350.867 325.304 350.08 325.304 349.28C325.304 347.867 326.411 346.4 328.624 344.88C330.864 343.333 332.717 342.56 334.184 342.56ZM241.344 468.88C241.344 471.76 239.958 474.2 237.184 476.2C234.438 478.2 230.798 479.64 226.264 480.52C224.318 487.107 223.158 490.4 222.784 490.4C222.411 490.4 221.971 490.107 221.464 489.52C220.958 488.907 220.704 488.307 220.704 487.72C220.704 487.107 221.091 485.507 221.864 482.92C224.264 474.947 225.518 469.387 225.624 466.24C224.984 465.653 224.664 465.12 224.664 464.64C224.664 463.973 225.571 463.333 227.384 462.72C229.198 462.107 230.931 461.8 232.584 461.8C235.144 461.8 237.238 462.453 238.864 463.76C240.518 465.067 241.344 466.773 241.344 468.88ZM237.824 469.12C237.824 467.947 237.371 466.987 236.464 466.24C235.584 465.467 234.518 465.08 233.264 465.08C232.011 465.08 230.491 465.48 228.704 466.28C228.971 466.867 229.104 467.413 229.104 467.92C229.104 469.413 228.451 472.573 227.144 477.4C230.344 476.547 232.918 475.373 234.864 473.88C236.838 472.36 237.824 470.773 237.824 469.12ZM244.343 475.44L244.223 472.44C244.223 471.187 244.516 470.56 245.103 470.56C245.61 470.56 246.09 470.893 246.543 471.56C247.023 472.2 247.263 472.973 247.263 473.88C247.263 474.76 247.236 475.427 247.183 475.88C249.503 472.36 251.703 470.6 253.783 470.6C255.09 470.6 255.743 470.92 255.743 471.56C255.743 471.88 255.596 472.173 255.303 472.44C255.01 472.707 254.543 473.013 253.903 473.36C252.49 473.973 251.29 474.92 250.303 476.2C249.343 477.453 248.556 478.88 247.943 480.48C247.33 482.08 246.836 483.427 246.463 484.52C246.116 485.613 245.85 486.467 245.663 487.08C245.476 487.693 245.263 488.293 245.023 488.88C244.596 489.947 244.103 490.48 243.543 490.48C243.09 490.48 242.716 490.227 242.423 489.72C242.156 489.187 242.023 488.68 242.023 488.2C242.023 487.693 242.25 486.707 242.703 485.24C243.796 481.88 244.343 478.613 244.343 475.44ZM267.265 477.36C267.265 476.453 267.119 475.6 266.825 474.8C266.532 473.973 266.105 473.373 265.545 473C263.705 473.507 262.119 474.933 260.785 477.28C259.479 479.6 258.825 481.787 258.825 483.84C258.825 485.893 259.332 487.173 260.345 487.68C262.265 487.307 263.892 486 265.225 483.76C266.585 481.493 267.265 479.36 267.265 477.36ZM256.745 477.72C257.679 475.64 258.892 473.933 260.385 472.6C261.905 471.24 263.452 470.56 265.025 470.56C266.625 470.56 267.959 471.24 269.025 472.6C270.092 473.933 270.625 475.573 270.625 477.52C270.625 479.44 270.159 481.413 269.225 483.44C268.292 485.44 266.999 487.107 265.345 488.44C263.719 489.747 261.985 490.4 260.145 490.4C258.785 490.4 257.652 489.773 256.745 488.52C255.839 487.267 255.385 485.68 255.385 483.76C255.385 481.813 255.839 479.8 256.745 477.72ZM277.71 489.24C277.31 490.067 276.964 490.48 276.67 490.48C276.377 490.48 276.017 490.24 275.59 489.76C275.164 489.253 274.95 488.827 274.95 488.48C274.95 488.133 275.097 487.453 275.39 486.44C276.67 482.147 277.604 478.653 278.19 475.96C276.857 476.2 276.004 476.32 275.63 476.32C275.257 476.32 274.857 476.12 274.43 475.72C274.004 475.32 273.79 474.907 273.79 474.48C273.79 474.027 274.257 473.667 275.19 473.4C276.15 473.133 277.404 472.867 278.95 472.6C279.057 472.067 279.217 471.213 279.43 470.04C280.07 466.28 280.924 463.613 281.99 462.04C283.057 460.44 284.537 459.64 286.43 459.64C287.844 459.64 289.324 460.293 290.87 461.6C292.417 462.88 293.19 464.187 293.19 465.52C293.19 466.827 292.857 467.48 292.19 467.48C291.71 467.48 291.137 467.093 290.47 466.32C289.83 465.52 289.15 464.733 288.43 463.96C287.737 463.16 287.097 462.76 286.51 462.76C285.15 462.76 283.857 465.533 282.63 471.08L282.39 472.12C285.724 471.693 288.244 471.48 289.95 471.48C291.684 471.48 292.55 472.133 292.55 473.44C292.55 474.16 291.95 476.427 290.75 480.24C289.55 484.027 288.737 486.667 288.31 488.16C287.884 489.627 287.324 490.36 286.63 490.36C286.23 490.36 285.897 490.187 285.63 489.84C285.39 489.467 285.27 489.053 285.27 488.6C285.27 488.12 285.497 487.013 285.95 485.28C286.404 483.52 286.937 481.52 287.55 479.28C288.164 477.013 288.59 475.36 288.83 474.32C287.657 474.373 285.244 474.72 281.59 475.36C279.75 483.04 278.457 487.667 277.71 489.24ZM302.323 462.72C302.323 467.733 301.283 474.24 299.203 482.24C297.87 487.68 296.936 490.4 296.403 490.4C296.03 490.4 295.59 490.107 295.083 489.52C294.603 488.933 294.363 488.48 294.363 488.16C294.363 487.84 294.75 486.187 295.523 483.2C296.296 480.213 297.07 476.547 297.843 472.2C298.616 467.827 299.003 463.893 299.003 460.4C299.003 460.027 299.056 459.76 299.163 459.6C299.27 459.44 299.496 459.36 299.843 459.36C300.19 459.36 300.683 459.747 301.323 460.52C301.99 461.267 302.323 462 302.323 462.72ZM320.208 477.2C320.208 478.613 319.434 479.773 317.888 480.68C316.368 481.56 314.634 482 312.688 482C310.768 482 309.021 481.787 307.448 481.36C307.074 482.533 306.888 483.587 306.888 484.52C306.888 485.427 307.168 486.133 307.728 486.64C308.314 487.147 309.261 487.4 310.568 487.4C311.901 487.4 313.261 487.173 314.648 486.72C316.061 486.24 316.834 486 316.968 486C317.661 486 318.008 486.267 318.008 486.8C318.008 487.52 317.194 488.307 315.568 489.16C313.941 489.987 312.354 490.4 310.808 490.4C308.728 490.4 307.034 489.787 305.728 488.56C304.421 487.307 303.768 485.733 303.768 483.84C303.768 481.947 304.274 479.973 305.288 477.92C306.301 475.84 307.608 474.093 309.208 472.68C310.808 471.267 312.394 470.56 313.968 470.56C315.541 470.56 316.968 471.307 318.248 472.8C319.554 474.293 320.208 475.76 320.208 477.2ZM314.168 473.72C313.181 473.72 312.154 474.24 311.088 475.28C310.021 476.293 309.114 477.56 308.368 479.08C309.434 479.32 310.648 479.44 312.008 479.44C313.368 479.44 314.554 479.227 315.568 478.8C316.581 478.347 317.088 477.76 317.088 477.04C317.088 476.32 316.754 475.587 316.088 474.84C315.448 474.093 314.808 473.72 314.168 473.72ZM198.341 540.48C198.341 540.987 197.168 541.573 194.821 542.24C195.035 545.013 195.141 547.373 195.141 549.32C195.141 552.68 194.715 554.36 193.861 554.36C193.408 554.36 193.048 554.08 192.781 553.52C192.515 552.96 192.301 551.987 192.141 550.6C191.955 548.04 191.755 545.533 191.541 543.08C190.341 543.4 189.248 543.693 188.261 543.96C187.275 544.2 185.781 544.6 183.781 545.16C181.435 551.293 180.048 554.36 179.621 554.36C179.195 554.36 178.728 554.107 178.221 553.6C177.741 553.067 177.501 552.507 177.501 551.92C177.501 551.653 178.261 549.76 179.781 546.24H179.501C178.968 546.24 178.488 546.067 178.061 545.72C177.661 545.373 177.461 544.947 177.461 544.44C177.461 543.907 178.781 543.213 181.421 542.36C181.848 541.4 182.195 540.533 182.461 539.76C183.075 538.24 183.928 536.16 185.021 533.52C186.115 530.88 186.808 529.2 187.101 528.48C187.395 527.733 187.901 527.107 188.621 526.6C189.368 526.067 190.088 525.8 190.781 525.8C191.608 525.8 192.341 527.12 192.981 529.76C193.648 532.4 194.181 535.667 194.581 539.56C195.328 539.48 195.981 539.44 196.541 539.44C197.741 539.44 198.341 539.787 198.341 540.48ZM185.261 541.32C187.155 540.813 189.155 540.387 191.261 540.04C190.781 535.48 190.315 532.053 189.861 529.76C188.661 532.507 187.128 536.36 185.261 541.32ZM214.437 534.44C215.584 534.44 216.571 535.173 217.397 536.64C218.251 538.107 218.677 539.627 218.677 541.2C218.677 542.747 218.224 544.307 217.317 545.88C216.411 547.427 215.291 548.813 213.957 550.04C212.624 551.267 211.144 552.293 209.517 553.12C207.917 553.92 206.437 554.32 205.077 554.32C204.544 554.32 204.037 554.253 203.557 554.12C203.451 554.573 203.264 555.387 202.997 556.56C202.731 557.733 202.504 558.707 202.317 559.48C202.131 560.253 201.917 561.08 201.677 561.96C201.197 563.773 200.771 564.68 200.397 564.68C200.024 564.68 199.637 564.387 199.237 563.8C198.811 563.24 198.597 562.733 198.597 562.28C198.597 561.827 199.024 559.88 199.877 556.44C202.437 546.067 203.717 539.08 203.717 535.48C203.717 534.68 204.011 534.28 204.597 534.28C205.077 534.28 205.651 534.64 206.317 535.36C207.011 536.053 207.357 536.827 207.357 537.68C207.357 538.107 207.304 538.573 207.197 539.08C209.571 535.987 211.984 534.44 214.437 534.44ZM204.677 551.2C206.091 551.2 207.611 550.72 209.237 549.76C210.891 548.8 212.291 547.533 213.437 545.96C214.611 544.36 215.197 542.773 215.197 541.2C215.197 538.987 214.677 537.88 213.637 537.88C212.597 537.88 211.184 538.773 209.397 540.56C207.637 542.347 206.237 544.667 205.197 547.52L204.277 551.2H204.677ZM233.539 534.44C234.685 534.44 235.672 535.173 236.499 536.64C237.352 538.107 237.779 539.627 237.779 541.2C237.779 542.747 237.325 544.307 236.419 545.88C235.512 547.427 234.392 548.813 233.059 550.04C231.725 551.267 230.245 552.293 228.619 553.12C227.019 553.92 225.539 554.32 224.179 554.32C223.645 554.32 223.139 554.253 222.659 554.12C222.552 554.573 222.365 555.387 222.099 556.56C221.832 557.733 221.605 558.707 221.419 559.48C221.232 560.253 221.019 561.08 220.779 561.96C220.299 563.773 219.872 564.68 219.499 564.68C219.125 564.68 218.739 564.387 218.339 563.8C217.912 563.24 217.699 562.733 217.699 562.28C217.699 561.827 218.125 559.88 218.979 556.44C221.539 546.067 222.819 539.08 222.819 535.48C222.819 534.68 223.112 534.28 223.699 534.28C224.179 534.28 224.752 534.64 225.419 535.36C226.112 536.053 226.459 536.827 226.459 537.68C226.459 538.107 226.405 538.573 226.299 539.08C228.672 535.987 231.085 534.44 233.539 534.44ZM223.779 551.2C225.192 551.2 226.712 550.72 228.339 549.76C229.992 548.8 231.392 547.533 232.539 545.96C233.712 544.36 234.299 542.773 234.299 541.2C234.299 538.987 233.779 537.88 232.739 537.88C231.699 537.88 230.285 538.773 228.499 540.56C226.739 542.347 225.339 544.667 224.299 547.52L223.379 551.2H223.779ZM255.52 541.2C255.52 542.613 254.747 543.773 253.2 544.68C251.68 545.56 249.947 546 248 546C246.08 546 244.334 545.787 242.76 545.36C242.387 546.533 242.2 547.587 242.2 548.52C242.2 549.427 242.48 550.133 243.04 550.64C243.627 551.147 244.574 551.4 245.88 551.4C247.214 551.4 248.574 551.173 249.96 550.72C251.374 550.24 252.147 550 252.28 550C252.974 550 253.32 550.267 253.32 550.8C253.32 551.52 252.507 552.307 250.88 553.16C249.254 553.987 247.667 554.4 246.12 554.4C244.04 554.4 242.347 553.787 241.04 552.56C239.734 551.307 239.08 549.733 239.08 547.84C239.08 545.947 239.587 543.973 240.6 541.92C241.614 539.84 242.92 538.093 244.52 536.68C246.12 535.267 247.707 534.56 249.28 534.56C250.854 534.56 252.28 535.307 253.56 536.8C254.867 538.293 255.52 539.76 255.52 541.2ZM249.48 537.72C248.494 537.72 247.467 538.24 246.4 539.28C245.334 540.293 244.427 541.56 243.68 543.08C244.747 543.32 245.96 543.44 247.32 543.44C248.68 543.44 249.867 543.227 250.88 542.8C251.894 542.347 252.4 541.76 252.4 541.04C252.4 540.32 252.067 539.587 251.4 538.84C250.76 538.093 250.12 537.72 249.48 537.72ZM268.208 534.56C269.408 534.56 270.515 535.173 271.528 536.4C272.541 537.6 273.048 538.693 273.048 539.68C273.048 540.64 272.715 541.627 272.048 542.64C272.368 543.04 272.528 543.387 272.528 543.68C272.528 544.427 272.355 545.707 272.008 547.52C271.688 549.333 271.488 550.52 271.408 551.08C271.355 551.64 271.301 552.093 271.248 552.44C271.195 552.76 271.128 553.08 271.048 553.4C270.941 554.067 270.701 554.4 270.328 554.4C269.848 554.4 269.448 553.987 269.128 553.16C268.835 552.307 268.661 551.213 268.608 549.88C266.235 552.893 264.035 554.4 262.008 554.4C260.781 554.4 259.568 553.88 258.368 552.84C257.195 551.773 256.608 550.68 256.608 549.56C256.608 547.96 257.195 545.987 258.368 543.64C259.541 541.267 261.061 539.16 262.928 537.32C264.795 535.48 266.555 534.56 268.208 534.56ZM270.048 541.6C270.048 539.12 269.555 537.88 268.568 537.88C267.528 537.88 266.315 538.627 264.928 540.12C263.541 541.587 262.368 543.253 261.408 545.12C260.448 546.987 259.968 548.467 259.968 549.56C259.968 550.013 260.155 550.387 260.528 550.68C260.901 550.947 261.341 551.08 261.848 551.08C263.101 551.08 264.515 550.24 266.088 548.56C267.661 546.853 268.755 544.787 269.368 542.36C269.448 541.96 269.675 541.72 270.048 541.64V541.6ZM278.718 539.44L278.598 536.44C278.598 535.187 278.891 534.56 279.478 534.56C279.985 534.56 280.465 534.893 280.918 535.56C281.398 536.2 281.638 536.973 281.638 537.88C281.638 538.76 281.611 539.427 281.558 539.88C283.878 536.36 286.078 534.6 288.158 534.6C289.465 534.6 290.118 534.92 290.118 535.56C290.118 535.88 289.971 536.173 289.678 536.44C289.385 536.707 288.918 537.013 288.278 537.36C286.865 537.973 285.665 538.92 284.678 540.2C283.718 541.453 282.931 542.88 282.318 544.48C281.705 546.08 281.211 547.427 280.838 548.52C280.491 549.613 280.225 550.467 280.038 551.08C279.851 551.693 279.638 552.293 279.398 552.88C278.971 553.947 278.478 554.48 277.918 554.48C277.465 554.48 277.091 554.227 276.798 553.72C276.531 553.187 276.398 552.68 276.398 552.2C276.398 551.693 276.625 550.707 277.078 549.24C278.171 545.88 278.718 542.613 278.718 539.44ZM300.2 534.56C301.4 534.56 302.507 535.173 303.52 536.4C304.534 537.6 305.04 538.693 305.04 539.68C305.04 540.64 304.707 541.627 304.04 542.64C304.36 543.04 304.52 543.387 304.52 543.68C304.52 544.427 304.347 545.707 304 547.52C303.68 549.333 303.48 550.52 303.4 551.08C303.347 551.64 303.294 552.093 303.24 552.44C303.187 552.76 303.12 553.08 303.04 553.4C302.934 554.067 302.694 554.4 302.32 554.4C301.84 554.4 301.44 553.987 301.12 553.16C300.827 552.307 300.654 551.213 300.6 549.88C298.227 552.893 296.027 554.4 294 554.4C292.774 554.4 291.56 553.88 290.36 552.84C289.187 551.773 288.6 550.68 288.6 549.56C288.6 547.96 289.187 545.987 290.36 543.64C291.534 541.267 293.054 539.16 294.92 537.32C296.787 535.48 298.547 534.56 300.2 534.56ZM302.04 541.6C302.04 539.12 301.547 537.88 300.56 537.88C299.52 537.88 298.307 538.627 296.92 540.12C295.534 541.587 294.36 543.253 293.4 545.12C292.44 546.987 291.96 548.467 291.96 549.56C291.96 550.013 292.147 550.387 292.52 550.68C292.894 550.947 293.334 551.08 293.84 551.08C295.094 551.08 296.507 550.24 298.08 548.56C299.654 546.853 300.747 544.787 301.36 542.36C301.44 541.96 301.667 541.72 302.04 541.64V541.6ZM312.23 547.44C314.79 543.093 316.87 539.867 318.47 537.76C320.097 535.627 321.417 534.56 322.43 534.56C323.47 534.56 324.444 535.107 325.35 536.2C326.284 537.293 326.75 538.453 326.75 539.68C326.75 541.6 326.31 543.947 325.43 546.72C323.83 551.84 322.39 554.4 321.11 554.4C320.524 554.4 320.23 554 320.23 553.2C320.23 552.64 320.51 551.507 321.07 549.8C321.657 548.067 322.19 546.373 322.67 544.72C323.177 543.04 323.43 541.787 323.43 540.96C323.43 540.107 323.297 539.48 323.03 539.08C322.79 538.68 322.537 538.48 322.27 538.48C322.03 538.48 321.777 538.56 321.51 538.72C321.244 538.88 320.937 539.147 320.59 539.52C320.27 539.893 319.964 540.267 319.67 540.64C319.377 540.987 319.004 541.493 318.55 542.16C318.124 542.827 317.764 543.4 317.47 543.88C317.177 544.333 316.75 545 316.19 545.88C315.63 546.76 315.204 547.427 314.91 547.88C314.617 548.333 314.23 548.947 313.75 549.72C313.27 550.493 312.884 551.093 312.59 551.52C312.324 551.947 312.017 552.413 311.67 552.92C311.004 553.907 310.47 554.4 310.07 554.4C309.697 554.4 309.257 554.107 308.75 553.52C308.244 552.907 307.99 552.373 307.99 551.92C307.99 551.787 308.084 551.427 308.27 550.84C308.777 549.293 309.337 547.387 309.95 545.12C310.564 542.827 310.897 540.227 310.95 537.32C311.03 535.373 311.31 534.4 311.79 534.4C312.377 534.4 312.964 534.707 313.55 535.32C314.137 535.933 314.43 536.613 314.43 537.36C314.43 538.08 314.204 539.493 313.75 541.6C313.324 543.68 312.817 545.627 312.23 547.44ZM336.078 554.4C334.532 554.4 333.078 553.8 331.718 552.6C330.358 551.373 329.678 549.933 329.678 548.28C329.678 546.6 330.238 544.667 331.358 542.48C332.478 540.293 333.918 538.427 335.678 536.88C337.465 535.333 339.198 534.56 340.878 534.56C341.972 534.56 342.932 535.053 343.758 536.04C344.585 537.027 344.998 537.893 344.998 538.64C344.998 538.853 344.932 539.04 344.798 539.2C344.665 539.333 344.465 539.4 344.198 539.4C343.958 539.4 343.518 539.16 342.878 538.68C342.238 538.2 341.665 537.96 341.158 537.96C339.718 537.96 338.038 539.227 336.118 541.76C334.198 544.293 333.238 546.507 333.238 548.4C333.238 549.227 333.492 549.88 333.998 550.36C334.532 550.84 335.372 551.08 336.518 551.08C337.692 551.08 338.758 550.947 339.718 550.68C340.705 550.387 341.465 550.107 341.998 549.84C342.532 549.547 342.945 549.4 343.238 549.4C343.745 549.4 343.998 549.653 343.998 550.16C343.998 550.933 343.065 551.84 341.198 552.88C339.358 553.893 337.652 554.4 336.078 554.4ZM363.411 541.2C363.411 542.613 362.638 543.773 361.091 544.68C359.571 545.56 357.838 546 355.891 546C353.971 546 352.224 545.787 350.651 545.36C350.278 546.533 350.091 547.587 350.091 548.52C350.091 549.427 350.371 550.133 350.931 550.64C351.518 551.147 352.464 551.4 353.771 551.4C355.104 551.4 356.464 551.173 357.851 550.72C359.264 550.24 360.038 550 360.171 550C360.864 550 361.211 550.267 361.211 550.8C361.211 551.52 360.398 552.307 358.771 553.16C357.144 553.987 355.558 554.4 354.011 554.4C351.931 554.4 350.238 553.787 348.931 552.56C347.624 551.307 346.971 549.733 346.971 547.84C346.971 545.947 347.478 543.973 348.491 541.92C349.504 539.84 350.811 538.093 352.411 536.68C354.011 535.267 355.598 534.56 357.171 534.56C358.744 534.56 360.171 535.307 361.451 536.8C362.758 538.293 363.411 539.76 363.411 541.2ZM357.371 537.72C356.384 537.72 355.358 538.24 354.291 539.28C353.224 540.293 352.318 541.56 351.571 543.08C352.638 543.32 353.851 543.44 355.211 543.44C356.571 543.44 357.758 543.227 358.771 542.8C359.784 542.347 360.291 541.76 360.291 541.04C360.291 540.32 359.958 539.587 359.291 538.84C358.651 538.093 358.011 537.72 357.371 537.72ZM234.02 596.88C234.02 599.76 232.633 602.2 229.86 604.2C227.113 606.2 223.473 607.64 218.94 608.52C216.993 615.107 215.833 618.4 215.46 618.4C215.087 618.4 214.647 618.107 214.14 617.52C213.633 616.907 213.38 616.307 213.38 615.72C213.38 615.107 213.767 613.507 214.54 610.92C216.94 602.947 218.193 597.387 218.3 594.24C217.66 593.653 217.34 593.12 217.34 592.64C217.34 591.973 218.247 591.333 220.06 590.72C221.873 590.107 223.607 589.8 225.26 589.8C227.82 589.8 229.913 590.453 231.54 591.76C233.193 593.067 234.02 594.773 234.02 596.88ZM230.5 597.12C230.5 595.947 230.047 594.987 229.14 594.24C228.26 593.467 227.193 593.08 225.94 593.08C224.687 593.08 223.167 593.48 221.38 594.28C221.647 594.867 221.78 595.413 221.78 595.92C221.78 597.413 221.127 600.573 219.82 605.4C223.02 604.547 225.593 603.373 227.54 601.88C229.513 600.36 230.5 598.773 230.5 597.12ZM237.019 603.44L236.899 600.44C236.899 599.187 237.192 598.56 237.779 598.56C238.286 598.56 238.766 598.893 239.219 599.56C239.699 600.2 239.939 600.973 239.939 601.88C239.939 602.76 239.912 603.427 239.859 603.88C242.179 600.36 244.379 598.6 246.459 598.6C247.766 598.6 248.419 598.92 248.419 599.56C248.419 599.88 248.272 600.173 247.979 600.44C247.686 600.707 247.219 601.013 246.579 601.36C245.166 601.973 243.966 602.92 242.979 604.2C242.019 605.453 241.232 606.88 240.619 608.48C240.006 610.08 239.512 611.427 239.139 612.52C238.792 613.613 238.526 614.467 238.339 615.08C238.152 615.693 237.939 616.293 237.699 616.88C237.272 617.947 236.779 618.48 236.219 618.48C235.766 618.48 235.392 618.227 235.099 617.72C234.832 617.187 234.699 616.68 234.699 616.2C234.699 615.693 234.926 614.707 235.379 613.24C236.472 609.88 237.019 606.613 237.019 603.44ZM252.981 592.88C252.981 592.347 253.194 591.84 253.621 591.36C254.048 590.88 254.474 590.64 254.901 590.64C255.354 590.64 255.888 591.187 256.501 592.28C257.114 593.347 257.421 594.24 257.421 594.96C257.421 595.227 257.301 595.467 257.061 595.68C256.821 595.893 256.568 596 256.301 596C255.661 596 254.941 595.613 254.141 594.84C253.368 594.067 252.981 593.413 252.981 592.88ZM252.781 598.56C253.288 598.56 253.768 598.867 254.221 599.48C254.674 600.093 254.901 600.693 254.901 601.28C254.901 601.867 254.514 603.627 253.741 606.56C252.968 609.467 251.994 612.733 250.821 616.36C250.368 617.693 249.794 618.36 249.101 618.36C248.728 618.36 248.408 618.213 248.141 617.92C247.874 617.6 247.741 617.253 247.741 616.88C247.741 616.48 247.834 615.867 248.021 615.04C248.234 614.187 248.528 613.067 248.901 611.68C249.301 610.267 249.608 609.12 249.821 608.24C250.061 607.36 250.301 606.373 250.541 605.28C250.781 604.16 250.968 603.267 251.101 602.6C251.261 601.907 251.434 601.213 251.621 600.52C251.994 599.213 252.381 598.56 252.781 598.56ZM271.192 598.56C271.646 598.56 272.086 598.733 272.512 599.08C272.939 599.4 273.152 599.76 273.152 600.16C273.152 600.88 272.179 603.373 270.232 607.64C268.312 611.907 266.939 614.787 266.112 616.28C265.312 617.747 264.606 618.48 263.992 618.48C263.646 618.48 263.219 618.227 262.712 617.72C262.206 617.213 261.832 616.667 261.592 616.08C260.872 614.4 260.099 611.693 259.272 607.96C258.446 604.227 258.032 601.493 258.032 599.76C258.032 598.96 258.272 598.56 258.752 598.56C259.339 598.56 259.939 598.813 260.552 599.32C261.166 599.8 261.592 600.413 261.832 601.16C261.912 601.587 262.019 602.653 262.152 604.36C262.526 608.573 263.166 611.813 264.072 614.08C264.792 612.533 265.712 610.347 266.832 607.52C267.952 604.667 268.859 602.467 269.552 600.92C270.272 599.347 270.819 598.56 271.192 598.56ZM284.907 598.56C286.107 598.56 287.214 599.173 288.227 600.4C289.241 601.6 289.747 602.693 289.747 603.68C289.747 604.64 289.414 605.627 288.747 606.64C289.067 607.04 289.227 607.387 289.227 607.68C289.227 608.427 289.054 609.707 288.707 611.52C288.387 613.333 288.187 614.52 288.107 615.08C288.054 615.64 288.001 616.093 287.947 616.44C287.894 616.76 287.827 617.08 287.747 617.4C287.641 618.067 287.401 618.4 287.027 618.4C286.547 618.4 286.147 617.987 285.827 617.16C285.534 616.307 285.361 615.213 285.307 613.88C282.934 616.893 280.734 618.4 278.707 618.4C277.481 618.4 276.267 617.88 275.067 616.84C273.894 615.773 273.307 614.68 273.307 613.56C273.307 611.96 273.894 609.987 275.067 607.64C276.241 605.267 277.761 603.16 279.627 601.32C281.494 599.48 283.254 598.56 284.907 598.56ZM286.747 605.6C286.747 603.12 286.254 601.88 285.267 601.88C284.227 601.88 283.014 602.627 281.627 604.12C280.241 605.587 279.067 607.253 278.107 609.12C277.147 610.987 276.667 612.467 276.667 613.56C276.667 614.013 276.854 614.387 277.227 614.68C277.601 614.947 278.041 615.08 278.547 615.08C279.801 615.08 281.214 614.24 282.787 612.56C284.361 610.853 285.454 608.787 286.067 606.36C286.147 605.96 286.374 605.72 286.747 605.64V605.6ZM299.457 618.4C297.911 618.4 296.457 617.8 295.097 616.6C293.737 615.373 293.057 613.933 293.057 612.28C293.057 610.6 293.617 608.667 294.737 606.48C295.857 604.293 297.297 602.427 299.057 600.88C300.844 599.333 302.577 598.56 304.257 598.56C305.351 598.56 306.311 599.053 307.137 600.04C307.964 601.027 308.377 601.893 308.377 602.64C308.377 602.853 308.311 603.04 308.177 603.2C308.044 603.333 307.844 603.4 307.577 603.4C307.337 603.4 306.897 603.16 306.257 602.68C305.617 602.2 305.044 601.96 304.537 601.96C303.097 601.96 301.417 603.227 299.497 605.76C297.577 608.293 296.617 610.507 296.617 612.4C296.617 613.227 296.871 613.88 297.377 614.36C297.911 614.84 298.751 615.08 299.897 615.08C301.071 615.08 302.137 614.947 303.097 614.68C304.084 614.387 304.844 614.107 305.377 613.84C305.911 613.547 306.324 613.4 306.617 613.4C307.124 613.4 307.377 613.653 307.377 614.16C307.377 614.933 306.444 615.84 304.577 616.88C302.737 617.893 301.031 618.4 299.457 618.4ZM326.47 598.56C326.897 598.56 327.35 598.88 327.83 599.52C328.337 600.133 328.59 600.827 328.59 601.6C328.59 602.133 328.043 603.947 326.95 607.04C325.857 610.133 325.11 612.24 324.71 613.36C324.337 614.453 323.817 615.92 323.15 617.76C322.51 619.573 321.883 621.347 321.27 623.08C319.937 626.893 317.937 628.8 315.27 628.8C313.75 628.8 312.297 628.333 310.91 627.4C309.523 626.493 308.83 625.547 308.83 624.56C308.83 624.187 309.003 623.773 309.35 623.32C309.67 622.867 309.95 622.64 310.19 622.64C310.43 622.64 310.817 622.933 311.35 623.52C312.897 625.28 314.217 626.16 315.31 626.16C316.137 626.16 316.883 625.427 317.55 623.96C318.217 622.52 318.843 620.88 319.43 619.04C320.043 617.227 320.377 616.227 320.43 616.04C320.51 615.853 320.59 615.613 320.67 615.32C320.777 615.027 320.87 614.76 320.95 614.52C319.057 617.107 317.19 618.4 315.35 618.4C314.23 618.4 313.19 617.88 312.23 616.84C311.297 615.8 310.83 614.573 310.83 613.16C310.83 611.747 311.177 609.84 311.87 607.44C312.563 605.04 313.377 602.96 314.31 601.2C315.243 599.44 316.003 598.56 316.59 598.56C317.07 598.56 317.51 598.787 317.91 599.24C318.337 599.667 318.55 600.107 318.55 600.56C318.55 601.013 318.203 601.96 317.51 603.4C315.35 607.827 314.27 611.267 314.27 613.72C314.27 614.147 314.403 614.507 314.67 614.8C314.937 615.067 315.257 615.2 315.63 615.2C316.59 615.2 317.737 614.347 319.07 612.64C320.403 610.933 321.63 608.907 322.75 606.56C323.683 604.587 324.657 602.067 325.67 599C325.777 598.707 326.043 598.56 326.47 598.56ZM210.831 655.2C210.831 654.773 210.884 654.467 210.991 654.28C211.124 654.093 211.378 654 211.751 654C212.151 654 212.644 654.333 213.231 655C213.818 655.667 214.111 656.373 214.111 657.12C214.111 658.987 212.964 663.707 210.671 671.28C209.524 674.96 208.951 677.16 208.951 677.88C208.951 678.6 209.298 678.96 209.991 678.96C213.004 678.96 216.311 678.467 219.911 677.48C221.058 677.16 221.738 677 221.951 677C222.191 677 222.351 677.053 222.431 677.16C222.511 677.24 222.551 677.413 222.551 677.68C222.551 678.8 221.178 679.853 218.431 680.84C215.711 681.827 212.938 682.32 210.111 682.32C208.831 682.32 207.711 681.947 206.751 681.2C205.818 680.453 205.351 679.573 205.351 678.56C205.351 677.52 206.258 673.827 208.071 667.48C209.911 661.133 210.831 657.04 210.831 655.2ZM238.027 669.36C238.027 668.453 237.88 667.6 237.587 666.8C237.294 665.973 236.867 665.373 236.307 665C234.467 665.507 232.88 666.933 231.547 669.28C230.24 671.6 229.587 673.787 229.587 675.84C229.587 677.893 230.094 679.173 231.107 679.68C233.027 679.307 234.654 678 235.987 675.76C237.347 673.493 238.027 671.36 238.027 669.36ZM227.507 669.72C228.44 667.64 229.654 665.933 231.147 664.6C232.667 663.24 234.214 662.56 235.787 662.56C237.387 662.56 238.72 663.24 239.787 664.6C240.854 665.933 241.387 667.573 241.387 669.52C241.387 671.44 240.92 673.413 239.987 675.44C239.054 677.44 237.76 679.107 236.107 680.44C234.48 681.747 232.747 682.4 230.907 682.4C229.547 682.4 228.414 681.773 227.507 680.52C226.6 679.267 226.147 677.68 226.147 675.76C226.147 673.813 226.6 671.8 227.507 669.72ZM259.912 671.6C259.912 672.667 259.445 673.88 258.512 675.24C257.792 676.867 257.019 679.213 256.192 682.28C255.365 685.32 254.672 687.493 254.112 688.8C252.992 691.52 251.272 692.88 248.952 692.88C247.059 692.88 245.459 692.36 244.152 691.32C242.872 690.307 242.232 689.293 242.232 688.28C242.232 687.853 242.365 687.427 242.632 687C242.872 686.573 243.125 686.36 243.392 686.36C243.685 686.36 244.005 686.56 244.352 686.96C244.699 687.36 245.019 687.787 245.312 688.24C245.632 688.72 246.099 689.16 246.712 689.56C247.352 689.96 247.965 690.16 248.552 690.16C249.139 690.16 249.579 690.067 249.872 689.88C250.165 689.72 250.445 689.44 250.712 689.04C250.979 688.667 251.205 688.28 251.392 687.88C251.579 687.507 251.779 686.96 251.992 686.24C252.232 685.547 252.419 684.947 252.552 684.44C252.685 683.933 252.872 683.227 253.112 682.32C253.352 681.387 253.552 680.64 253.712 680.08C251.632 681.627 249.939 682.4 248.632 682.4C247.325 682.4 246.192 681.88 245.232 680.84C244.272 679.773 243.792 678.547 243.792 677.16C243.792 675.747 244.312 673.88 245.352 671.56C246.419 669.24 247.845 667.16 249.632 665.32C251.419 663.48 253.165 662.56 254.872 662.56C255.965 662.56 256.885 662.973 257.632 663.8C258.859 665.16 259.472 667.093 259.472 669.6C259.472 669.92 259.459 670.147 259.432 670.28C259.752 670.733 259.912 671.173 259.912 671.6ZM247.032 677.56C247.032 678.013 247.179 678.387 247.472 678.68C247.765 678.947 248.139 679.08 248.592 679.08C249.925 679.08 251.499 678.293 253.312 676.72C255.125 675.12 256.405 673.267 257.152 671.16C257.045 670.813 256.952 670.28 256.872 669.56C256.792 668.84 256.712 668.267 256.632 667.84C256.552 667.413 256.379 666.987 256.112 666.56C255.845 666.107 255.499 665.88 255.072 665.88C254.032 665.88 252.859 666.627 251.552 668.12C250.245 669.613 249.165 671.28 248.312 673.12C247.459 674.96 247.032 676.44 247.032 677.56ZM291.471 676.8C293.231 675.227 294.738 673.293 295.991 671C297.244 668.68 297.871 666.493 297.871 664.44C297.871 662.387 297.471 660.72 296.671 659.44C295.898 658.16 294.978 657.52 293.911 657.52C292.844 657.52 291.511 658.347 289.911 660C288.311 661.653 286.871 663.827 285.591 666.52C284.311 669.187 283.671 671.747 283.671 674.2C283.671 675.667 283.991 676.867 284.631 677.8C285.271 678.707 286.018 679.16 286.871 679.16C288.204 679.16 289.738 678.373 291.471 676.8ZM286.631 682.32C284.871 682.32 283.324 681.453 281.991 679.72C280.684 677.987 280.031 676.227 280.031 674.44C280.031 672.013 280.471 669.547 281.351 667.04C282.258 664.533 283.378 662.347 284.711 660.48C286.071 658.613 287.564 657.093 289.191 655.92C290.818 654.72 292.324 654.12 293.711 654.12C295.951 654.12 297.818 655.147 299.311 657.2C300.804 659.227 301.551 661.52 301.551 664.08C301.551 666.64 300.844 669.333 299.431 672.16C298.018 674.96 296.124 677.36 293.751 679.36C291.404 681.333 289.031 682.32 286.631 682.32ZM317.802 663.68C317.909 663.253 318.016 662.96 318.122 662.8C318.229 662.64 318.456 662.56 318.802 662.56C319.176 662.56 319.616 662.907 320.122 663.6C320.656 664.293 320.922 664.96 320.922 665.6C320.922 665.947 320.336 668 319.162 671.76C317.989 675.52 317.082 678.507 316.442 680.72C316.122 681.84 315.669 682.4 315.082 682.4C314.736 682.4 314.442 682.253 314.202 681.96C313.962 681.667 313.842 681.133 313.842 680.36C313.842 679.587 314.149 678.187 314.762 676.16C313.642 677.973 312.429 679.467 311.122 680.64C309.816 681.813 308.616 682.4 307.522 682.4C306.456 682.4 305.442 681.893 304.482 680.88C303.522 679.867 303.042 678.827 303.042 677.76C303.042 675.227 303.776 672.067 305.242 668.28C306.736 664.467 307.976 662.56 308.962 662.56C309.442 662.56 309.856 662.787 310.202 663.24C310.576 663.667 310.762 664.16 310.762 664.72C310.762 664.96 310.402 665.827 309.682 667.32C308.962 668.787 308.242 670.52 307.522 672.52C306.802 674.493 306.442 676.227 306.442 677.72C306.442 678.147 306.576 678.507 306.842 678.8C307.109 679.067 307.429 679.2 307.802 679.2C308.816 679.2 310.016 678.307 311.402 676.52C312.816 674.733 314.096 672.653 315.242 670.28C316.389 667.907 317.242 665.707 317.802 663.68ZM327.38 678.4C327.38 678.907 327.673 679.16 328.26 679.16C329.273 679.16 330.5 678.88 331.94 678.32C333.407 677.733 334.22 677.44 334.38 677.44C334.86 677.44 335.1 677.693 335.1 678.2C335.1 678.973 334.3 679.867 332.7 680.88C331.127 681.893 329.687 682.4 328.38 682.4C327.1 682.4 326.033 682.053 325.18 681.36C324.327 680.64 323.9 679.907 323.9 679.16C323.9 678.413 324.06 677.467 324.38 676.32C324.7 675.147 325.153 673.613 325.74 671.72C326.353 669.8 326.833 668.213 327.18 666.96C325.927 667.253 325.087 667.4 324.66 667.4C324.233 667.4 323.807 667.187 323.38 666.76C322.98 666.307 322.78 665.88 322.78 665.48C322.78 664.84 324.513 664.227 327.98 663.64C328.46 661.427 328.7 659.467 328.7 657.76C328.7 656.96 328.967 656.56 329.5 656.56C329.953 656.56 330.513 656.853 331.18 657.44C331.847 658 332.18 658.64 332.18 659.36C332.18 660.08 331.953 661.347 331.5 663.16C333.02 663.027 334.233 662.96 335.14 662.96C336.74 662.96 337.54 663.307 337.54 664C337.54 664.4 337.1 664.733 336.22 665C335.367 665.267 333.553 665.68 330.78 666.24C330.22 668.347 329.513 670.76 328.66 673.48C327.807 676.173 327.38 677.813 327.38 678.4Z" fill="white"/>
<path d="M596.48 431.8C596.533 430.653 596.8 430.08 597.28 430.08C597.787 430.08 598.333 430.387 598.92 431C599.507 431.613 599.8 432.16 599.8 432.64C599.8 434.827 599.453 437.933 598.76 441.96C598.093 445.987 597.187 449.72 596.04 453.16C594.92 456.6 593.853 458.32 592.84 458.32C592.493 458.32 592.093 458.147 591.64 457.8C591.213 457.453 590.88 457.027 590.64 456.52C589.84 454.653 587.48 448.733 583.56 438.76C582.76 441.853 581.867 445.36 580.88 449.28C579.92 453.173 579.28 455.653 578.96 456.72C578.64 457.787 578.36 458.32 578.12 458.32C577.773 458.32 577.347 458.027 576.84 457.44C576.36 456.827 576.12 456.2 576.12 455.56C576.12 454.92 576.987 451.173 578.72 444.32C580.453 437.44 581.347 433.147 581.4 431.44C581.4 430.587 581.627 430.16 582.08 430.16C582.373 430.16 582.773 430.413 583.28 430.92C583.813 431.4 584.2 431.933 584.44 432.52C588.733 443.667 591.453 450.493 592.6 453C594.333 448.413 595.493 442.933 596.08 436.56C596.347 433.627 596.48 432.04 596.48 431.8ZM612.95 438.56C614.15 438.56 615.257 439.173 616.27 440.4C617.284 441.6 617.79 442.693 617.79 443.68C617.79 444.64 617.457 445.627 616.79 446.64C617.11 447.04 617.27 447.387 617.27 447.68C617.27 448.427 617.097 449.707 616.75 451.52C616.43 453.333 616.23 454.52 616.15 455.08C616.097 455.64 616.044 456.093 615.99 456.44C615.937 456.76 615.87 457.08 615.79 457.4C615.684 458.067 615.444 458.4 615.07 458.4C614.59 458.4 614.19 457.987 613.87 457.16C613.577 456.307 613.404 455.213 613.35 453.88C610.977 456.893 608.777 458.4 606.75 458.4C605.524 458.4 604.31 457.88 603.11 456.84C601.937 455.773 601.35 454.68 601.35 453.56C601.35 451.96 601.937 449.987 603.11 447.64C604.284 445.267 605.804 443.16 607.67 441.32C609.537 439.48 611.297 438.56 612.95 438.56ZM614.79 445.6C614.79 443.12 614.297 441.88 613.31 441.88C612.27 441.88 611.057 442.627 609.67 444.12C608.284 445.587 607.11 447.253 606.15 449.12C605.19 450.987 604.71 452.467 604.71 453.56C604.71 454.013 604.897 454.387 605.27 454.68C605.644 454.947 606.084 455.08 606.59 455.08C607.844 455.08 609.257 454.24 610.83 452.56C612.404 450.853 613.497 448.787 614.11 446.36C614.19 445.96 614.417 445.72 614.79 445.64V445.6ZM646.94 438.56C647.74 438.56 648.447 439.12 649.06 440.24C649.7 441.333 650.02 442.587 650.02 444C650.02 445.387 649.767 447.2 649.26 449.44C648.78 451.68 648.127 453.733 647.3 455.6C646.474 457.467 645.66 458.4 644.86 458.4C644.3 458.4 644.02 458.04 644.02 457.32C644.02 456.573 644.474 454.773 645.38 451.92C646.314 449.04 646.78 446.76 646.78 445.08C646.78 443.373 646.514 442.52 645.98 442.52C645.314 442.52 644.54 443.107 643.66 444.28C642.807 445.453 641.887 446.867 640.9 448.52C639.914 450.173 639.38 451.067 639.3 451.2C639.22 451.307 639.114 451.467 638.98 451.68C638.874 451.893 638.74 452.12 638.58 452.36C638.447 452.6 638.074 453.32 637.46 454.52C636.874 455.72 636.354 456.667 635.9 457.36C635.447 458.027 635.047 458.36 634.7 458.36C634.38 458.36 634.02 458.147 633.62 457.72C633.22 457.293 633.02 456.893 633.02 456.52C633.02 456.147 633.26 455.373 633.74 454.2C635.127 450.733 635.82 447.507 635.82 444.52C635.82 443.96 635.7 443.493 635.46 443.12C635.22 442.72 634.954 442.52 634.66 442.52C634.367 442.52 634.06 442.653 633.74 442.92C633.42 443.16 633.02 443.613 632.54 444.28C632.06 444.92 631.634 445.533 631.26 446.12C630.887 446.707 630.314 447.627 629.54 448.88C628.794 450.107 628.22 451.027 627.82 451.64C627.447 452.227 627.007 452.92 626.5 453.72C625.994 454.493 625.594 455.093 625.3 455.52C625.034 455.947 624.727 456.413 624.38 456.92C623.66 457.907 623.127 458.4 622.78 458.4C622.46 458.4 622.034 458.107 621.5 457.52C620.967 456.907 620.7 456.453 620.7 456.16C620.7 455.84 620.754 455.453 620.86 455C620.967 454.547 621.074 454.107 621.18 453.68C621.314 453.253 621.5 452.627 621.74 451.8C622.007 450.947 622.3 449.96 622.62 448.84C622.967 447.693 623.22 446.133 623.38 444.16C623.567 442.16 623.7 440.707 623.78 439.8C623.86 438.867 624.087 438.4 624.46 438.4C625.047 438.4 625.62 438.707 626.18 439.32C626.767 439.933 627.06 440.547 627.06 441.16C627.06 443.507 626.18 447.373 624.42 452.76C627.407 447.16 629.287 443.84 630.06 442.8C630.834 441.76 631.5 440.92 632.06 440.28C633.1 439.133 634.154 438.56 635.22 438.56C635.86 438.56 636.62 439.12 637.5 440.24C638.407 441.333 638.86 442.44 638.86 443.56C638.86 444.68 638.7 446.067 638.38 447.72C641.527 441.613 644.38 438.56 646.94 438.56ZM668.856 445.2C668.856 446.613 668.083 447.773 666.536 448.68C665.016 449.56 663.283 450 661.336 450C659.416 450 657.67 449.787 656.096 449.36C655.723 450.533 655.536 451.587 655.536 452.52C655.536 453.427 655.816 454.133 656.376 454.64C656.963 455.147 657.91 455.4 659.216 455.4C660.55 455.4 661.91 455.173 663.296 454.72C664.71 454.24 665.483 454 665.616 454C666.31 454 666.656 454.267 666.656 454.8C666.656 455.52 665.843 456.307 664.216 457.16C662.59 457.987 661.003 458.4 659.456 458.4C657.376 458.4 655.683 457.787 654.376 456.56C653.07 455.307 652.416 453.733 652.416 451.84C652.416 449.947 652.923 447.973 653.936 445.92C654.95 443.84 656.256 442.093 657.856 440.68C659.456 439.267 661.043 438.56 662.616 438.56C664.19 438.56 665.616 439.307 666.896 440.8C668.203 442.293 668.856 443.76 668.856 445.2ZM662.816 441.72C661.83 441.72 660.803 442.24 659.736 443.28C658.67 444.293 657.763 445.56 657.016 447.08C658.083 447.32 659.296 447.44 660.656 447.44C662.016 447.44 663.203 447.227 664.216 446.8C665.23 446.347 665.736 445.76 665.736 445.04C665.736 444.32 665.403 443.587 664.736 442.84C664.096 442.093 663.456 441.72 662.816 441.72ZM677.744 445.56C677.131 445.56 676.397 445.013 675.544 443.92C674.691 442.827 674.264 441.973 674.264 441.36C674.264 440.72 674.451 440.093 674.824 439.48C675.224 438.84 675.611 438.52 675.984 438.52C676.651 438.52 677.291 439.28 677.904 440.8C678.544 442.32 678.864 443.373 678.864 443.96C678.864 445.027 678.491 445.56 677.744 445.56ZM674.664 459.28C674.051 459.28 673.317 458.747 672.464 457.68C671.637 456.613 671.224 455.76 671.224 455.12C671.224 454.48 671.411 453.853 671.784 453.24C672.157 452.6 672.544 452.28 672.944 452.28C673.584 452.28 674.211 453.04 674.824 454.56C675.464 456.053 675.784 457.24 675.784 458.12C675.784 458.413 675.677 458.68 675.464 458.92C675.251 459.16 674.984 459.28 674.664 459.28ZM582.32 509.68C580.88 514.24 580.16 517 580.16 517.96C580.16 518.28 580.253 518.547 580.44 518.76C580.653 518.947 580.92 519.04 581.24 519.04C584.307 519.04 587.693 518.547 591.4 517.56C592.6 517.24 593.293 517.08 593.48 517.08C593.88 517.08 594.08 517.36 594.08 517.92C594.08 518.88 592.6 519.867 589.64 520.88C586.707 521.893 583.867 522.4 581.12 522.4C579.893 522.4 578.813 522.04 577.88 521.32C576.973 520.6 576.52 519.693 576.52 518.6C576.52 517.507 576.907 515.64 577.68 513C578.48 510.36 579.28 507.547 580.08 504.56C580.88 501.573 581.28 499.053 581.28 497C581.28 496.707 581.333 496.4 581.44 496.08C581.893 495.093 584.8 494.6 590.16 494.6C595.52 494.6 598.2 494.987 598.2 495.76C598.2 496.293 597.627 496.653 596.48 496.84C595.52 497.027 594.24 497.2 592.64 497.36C591.067 497.493 589.96 497.6 589.32 497.68C588.68 497.733 587.133 497.973 584.68 498.4V498.52C584.68 500.333 584.187 503.067 583.2 506.72C583.36 506.747 583.893 506.76 584.8 506.76C585.733 506.76 586.973 506.693 588.52 506.56C590.067 506.427 591.227 506.36 592 506.36C592.8 506.36 593.2 506.547 593.2 506.92C593.2 507.853 592.107 508.547 589.92 509C587.733 509.453 585.2 509.68 582.32 509.68ZM624.518 502.56C625.318 502.56 626.025 503.12 626.638 504.24C627.278 505.333 627.598 506.587 627.598 508C627.598 509.387 627.345 511.2 626.838 513.44C626.358 515.68 625.705 517.733 624.878 519.6C624.052 521.467 623.238 522.4 622.438 522.4C621.878 522.4 621.598 522.04 621.598 521.32C621.598 520.573 622.052 518.773 622.958 515.92C623.892 513.04 624.358 510.76 624.358 509.08C624.358 507.373 624.092 506.52 623.558 506.52C622.892 506.52 622.118 507.107 621.238 508.28C620.385 509.453 619.465 510.867 618.478 512.52C617.492 514.173 616.958 515.067 616.878 515.2C616.798 515.307 616.692 515.467 616.558 515.68C616.452 515.893 616.318 516.12 616.158 516.36C616.025 516.6 615.652 517.32 615.038 518.52C614.452 519.72 613.932 520.667 613.478 521.36C613.025 522.027 612.625 522.36 612.278 522.36C611.958 522.36 611.598 522.147 611.198 521.72C610.798 521.293 610.598 520.893 610.598 520.52C610.598 520.147 610.838 519.373 611.318 518.2C612.705 514.733 613.398 511.507 613.398 508.52C613.398 507.96 613.278 507.493 613.038 507.12C612.798 506.72 612.532 506.52 612.238 506.52C611.945 506.52 611.638 506.653 611.318 506.92C610.998 507.16 610.598 507.613 610.118 508.28C609.638 508.92 609.212 509.533 608.838 510.12C608.465 510.707 607.892 511.627 607.118 512.88C606.372 514.107 605.798 515.027 605.398 515.64C605.025 516.227 604.585 516.92 604.078 517.72C603.572 518.493 603.172 519.093 602.878 519.52C602.612 519.947 602.305 520.413 601.958 520.92C601.238 521.907 600.705 522.4 600.358 522.4C600.038 522.4 599.612 522.107 599.078 521.52C598.545 520.907 598.278 520.453 598.278 520.16C598.278 519.84 598.332 519.453 598.438 519C598.545 518.547 598.652 518.107 598.758 517.68C598.892 517.253 599.078 516.627 599.318 515.8C599.585 514.947 599.878 513.96 600.198 512.84C600.545 511.693 600.798 510.133 600.958 508.16C601.145 506.16 601.278 504.707 601.358 503.8C601.438 502.867 601.665 502.4 602.038 502.4C602.625 502.4 603.198 502.707 603.758 503.32C604.345 503.933 604.638 504.547 604.638 505.16C604.638 507.507 603.758 511.373 601.998 516.76C604.985 511.16 606.865 507.84 607.638 506.8C608.412 505.76 609.078 504.92 609.638 504.28C610.678 503.133 611.732 502.56 612.798 502.56C613.438 502.56 614.198 503.12 615.078 504.24C615.985 505.333 616.438 506.44 616.438 507.56C616.438 508.68 616.278 510.067 615.958 511.72C619.105 505.613 621.958 502.56 624.518 502.56ZM641.114 502.56C642.314 502.56 643.421 503.173 644.434 504.4C645.448 505.6 645.954 506.693 645.954 507.68C645.954 508.64 645.621 509.627 644.954 510.64C645.274 511.04 645.434 511.387 645.434 511.68C645.434 512.427 645.261 513.707 644.914 515.52C644.594 517.333 644.394 518.52 644.314 519.08C644.261 519.64 644.208 520.093 644.154 520.44C644.101 520.76 644.034 521.08 643.954 521.4C643.848 522.067 643.608 522.4 643.234 522.4C642.754 522.4 642.354 521.987 642.034 521.16C641.741 520.307 641.568 519.213 641.514 517.88C639.141 520.893 636.941 522.4 634.914 522.4C633.688 522.4 632.474 521.88 631.274 520.84C630.101 519.773 629.514 518.68 629.514 517.56C629.514 515.96 630.101 513.987 631.274 511.64C632.448 509.267 633.968 507.16 635.834 505.32C637.701 503.48 639.461 502.56 641.114 502.56ZM642.954 509.6C642.954 507.12 642.461 505.88 641.474 505.88C640.434 505.88 639.221 506.627 637.834 508.12C636.448 509.587 635.274 511.253 634.314 513.12C633.354 514.987 632.874 516.467 632.874 517.56C632.874 518.013 633.061 518.387 633.434 518.68C633.808 518.947 634.248 519.08 634.754 519.08C636.008 519.08 637.421 518.24 638.994 516.56C640.568 514.853 641.661 512.787 642.274 510.36C642.354 509.96 642.581 509.72 642.954 509.64V509.6ZM654.344 496.88C654.344 496.347 654.558 495.84 654.984 495.36C655.411 494.88 655.838 494.64 656.264 494.64C656.718 494.64 657.251 495.187 657.864 496.28C658.478 497.347 658.784 498.24 658.784 498.96C658.784 499.227 658.664 499.467 658.424 499.68C658.184 499.893 657.931 500 657.664 500C657.024 500 656.304 499.613 655.504 498.84C654.731 498.067 654.344 497.413 654.344 496.88ZM654.144 502.56C654.651 502.56 655.131 502.867 655.584 503.48C656.038 504.093 656.264 504.693 656.264 505.28C656.264 505.867 655.878 507.627 655.104 510.56C654.331 513.467 653.358 516.733 652.184 520.36C651.731 521.693 651.158 522.36 650.464 522.36C650.091 522.36 649.771 522.213 649.504 521.92C649.238 521.6 649.104 521.253 649.104 520.88C649.104 520.48 649.198 519.867 649.384 519.04C649.598 518.187 649.891 517.067 650.264 515.68C650.664 514.267 650.971 513.12 651.184 512.24C651.424 511.36 651.664 510.373 651.904 509.28C652.144 508.16 652.331 507.267 652.464 506.6C652.624 505.907 652.798 505.213 652.984 504.52C653.358 503.213 653.744 502.56 654.144 502.56ZM666.636 494.72C666.636 499.733 665.596 506.24 663.516 514.24C662.182 519.68 661.249 522.4 660.716 522.4C660.342 522.4 659.902 522.107 659.396 521.52C658.916 520.933 658.676 520.48 658.676 520.16C658.676 519.84 659.062 518.187 659.836 515.2C660.609 512.213 661.382 508.547 662.156 504.2C662.929 499.827 663.316 495.893 663.316 492.4C663.316 492.027 663.369 491.76 663.476 491.6C663.582 491.44 663.809 491.36 664.156 491.36C664.502 491.36 664.996 491.747 665.636 492.52C666.302 493.267 666.636 494 666.636 494.72ZM675.4 509.56C674.787 509.56 674.054 509.013 673.2 507.92C672.347 506.827 671.92 505.973 671.92 505.36C671.92 504.72 672.107 504.093 672.48 503.48C672.88 502.84 673.267 502.52 673.64 502.52C674.307 502.52 674.947 503.28 675.56 504.8C676.2 506.32 676.52 507.373 676.52 507.96C676.52 509.027 676.147 509.56 675.4 509.56ZM672.32 523.28C671.707 523.28 670.974 522.747 670.12 521.68C669.294 520.613 668.88 519.76 668.88 519.12C668.88 518.48 669.067 517.853 669.44 517.24C669.814 516.6 670.2 516.28 670.6 516.28C671.24 516.28 671.867 517.04 672.48 518.56C673.12 520.053 673.44 521.24 673.44 522.12C673.44 522.413 673.334 522.68 673.12 522.92C672.907 523.16 672.64 523.28 672.32 523.28ZM596.36 564.88C596.36 567.76 594.973 570.2 592.2 572.2C589.453 574.2 585.813 575.64 581.28 576.52C579.333 583.107 578.173 586.4 577.8 586.4C577.427 586.4 576.987 586.107 576.48 585.52C575.973 584.907 575.72 584.307 575.72 583.72C575.72 583.107 576.107 581.507 576.88 578.92C579.28 570.947 580.533 565.387 580.64 562.24C580 561.653 579.68 561.12 579.68 560.64C579.68 559.973 580.587 559.333 582.4 558.72C584.213 558.107 585.947 557.8 587.6 557.8C590.16 557.8 592.253 558.453 593.88 559.76C595.533 561.067 596.36 562.773 596.36 564.88ZM592.84 565.12C592.84 563.947 592.387 562.987 591.48 562.24C590.6 561.467 589.533 561.08 588.28 561.08C587.027 561.08 585.507 561.48 583.72 562.28C583.987 562.867 584.12 563.413 584.12 563.92C584.12 565.413 583.467 568.573 582.16 573.4C585.36 572.547 587.933 571.373 589.88 569.88C591.853 568.36 592.84 566.773 592.84 565.12ZM607.599 566.56C608.799 566.56 609.905 567.173 610.919 568.4C611.932 569.6 612.439 570.693 612.439 571.68C612.439 572.64 612.105 573.627 611.439 574.64C611.759 575.04 611.919 575.387 611.919 575.68C611.919 576.427 611.745 577.707 611.399 579.52C611.079 581.333 610.879 582.52 610.799 583.08C610.745 583.64 610.692 584.093 610.639 584.44C610.585 584.76 610.519 585.08 610.439 585.4C610.332 586.067 610.092 586.4 609.719 586.4C609.239 586.4 608.839 585.987 608.519 585.16C608.225 584.307 608.052 583.213 607.999 581.88C605.625 584.893 603.425 586.4 601.399 586.4C600.172 586.4 598.959 585.88 597.759 584.84C596.585 583.773 595.999 582.68 595.999 581.56C595.999 579.96 596.585 577.987 597.759 575.64C598.932 573.267 600.452 571.16 602.319 569.32C604.185 567.48 605.945 566.56 607.599 566.56ZM609.439 573.6C609.439 571.12 608.945 569.88 607.959 569.88C606.919 569.88 605.705 570.627 604.319 572.12C602.932 573.587 601.759 575.253 600.799 577.12C599.839 578.987 599.359 580.467 599.359 581.56C599.359 582.013 599.545 582.387 599.919 582.68C600.292 582.947 600.732 583.08 601.239 583.08C602.492 583.08 603.905 582.24 605.479 580.56C607.052 578.853 608.145 576.787 608.759 574.36C608.839 573.96 609.065 573.72 609.439 573.64V573.6ZM627.149 566.56C628.055 566.56 628.909 567.067 629.709 568.08C630.509 569.067 630.909 569.933 630.909 570.68C630.909 571.133 630.695 571.36 630.269 571.36C629.975 571.36 629.522 571.133 628.909 570.68C628.295 570.2 627.669 569.96 627.029 569.96C626.389 569.96 625.375 570.333 623.989 571.08C622.629 571.827 621.949 572.613 621.949 573.44C621.949 574.053 623.175 575.107 625.629 576.6C626.562 577.187 627.402 577.947 628.149 578.88C628.922 579.787 629.309 580.773 629.309 581.84C629.309 582.88 628.575 583.907 627.109 584.92C625.669 585.907 623.975 586.4 622.029 586.4C620.109 586.4 618.402 585.933 616.909 585C615.442 584.067 614.709 583.187 614.709 582.36C614.709 582.013 614.789 581.747 614.949 581.56C615.135 581.347 615.362 581.24 615.629 581.24C615.895 581.24 616.269 581.413 616.749 581.76C618.189 582.8 619.682 583.32 621.229 583.32C622.802 583.32 623.935 583.147 624.629 582.8C625.322 582.427 625.669 581.947 625.669 581.36C625.669 580.747 625.282 580.107 624.509 579.44C623.735 578.747 622.882 578.133 621.949 577.6C621.042 577.067 620.202 576.413 619.429 575.64C618.655 574.867 618.269 574.08 618.269 573.28C618.269 571.867 619.375 570.4 621.589 568.88C623.829 567.333 625.682 566.56 627.149 566.56ZM644.18 566.56C645.087 566.56 645.94 567.067 646.74 568.08C647.54 569.067 647.94 569.933 647.94 570.68C647.94 571.133 647.727 571.36 647.3 571.36C647.007 571.36 646.553 571.133 645.94 570.68C645.327 570.2 644.7 569.96 644.06 569.96C643.42 569.96 642.407 570.333 641.02 571.08C639.66 571.827 638.98 572.613 638.98 573.44C638.98 574.053 640.207 575.107 642.66 576.6C643.593 577.187 644.433 577.947 645.18 578.88C645.953 579.787 646.34 580.773 646.34 581.84C646.34 582.88 645.607 583.907 644.14 584.92C642.7 585.907 641.007 586.4 639.06 586.4C637.14 586.4 635.433 585.933 633.94 585C632.473 584.067 631.74 583.187 631.74 582.36C631.74 582.013 631.82 581.747 631.98 581.56C632.167 581.347 632.393 581.24 632.66 581.24C632.927 581.24 633.3 581.413 633.78 581.76C635.22 582.8 636.713 583.32 638.26 583.32C639.833 583.32 640.967 583.147 641.66 582.8C642.353 582.427 642.7 581.947 642.7 581.36C642.7 580.747 642.313 580.107 641.54 579.44C640.767 578.747 639.913 578.133 638.98 577.6C638.073 577.067 637.233 576.413 636.46 575.64C635.687 574.867 635.3 574.08 635.3 573.28C635.3 571.867 636.407 570.4 638.62 568.88C640.86 567.333 642.713 566.56 644.18 566.56ZM665.851 570.8L665.571 578.32C665.571 580.4 665.665 581.907 665.851 582.84C666.998 581.64 667.985 580.24 668.811 578.64C669.665 577.013 670.291 575.507 670.691 574.12C671.118 572.733 671.478 571.44 671.771 570.24C672.091 569.013 672.385 568.04 672.651 567.32C672.918 566.6 673.225 566.24 673.571 566.24C674.078 566.24 674.531 566.453 674.931 566.88C675.331 567.28 675.531 567.747 675.531 568.28C675.531 569.64 674.918 571.88 673.691 575C672.651 577.88 671.291 580.52 669.611 582.92C667.931 585.293 666.625 586.48 665.691 586.48C664.758 586.48 664.051 585.96 663.571 584.92C663.118 583.88 662.865 581.893 662.811 578.96C662.758 576 662.798 573.44 662.931 571.28C661.091 576.293 659.465 580.08 658.051 582.64C656.638 585.2 655.518 586.48 654.691 586.48C654.318 586.48 653.918 586.307 653.491 585.96C653.091 585.613 652.771 585.16 652.531 584.6C651.945 583.187 651.438 580.493 651.011 576.52C650.611 572.52 650.411 569.667 650.411 567.96C650.411 566.867 650.745 566.32 651.411 566.32C651.998 566.32 652.531 566.653 653.011 567.32C653.518 567.987 653.811 568.653 653.891 569.32C653.971 569.96 654.038 571.773 654.091 574.76C654.171 577.72 654.425 580.36 654.851 582.68C655.945 580.787 657.038 578.413 658.131 575.56C659.251 572.707 660.158 570.467 660.851 568.84C661.571 567.213 662.225 566.4 662.811 566.4C663.691 566.4 664.411 566.813 664.971 567.64C665.558 568.44 665.851 569.493 665.851 570.8ZM688.765 573.36C688.765 572.453 688.619 571.6 688.325 570.8C688.032 569.973 687.605 569.373 687.045 569C685.205 569.507 683.619 570.933 682.285 573.28C680.979 575.6 680.325 577.787 680.325 579.84C680.325 581.893 680.832 583.173 681.845 583.68C683.765 583.307 685.392 582 686.725 579.76C688.085 577.493 688.765 575.36 688.765 573.36ZM678.245 573.72C679.179 571.64 680.392 569.933 681.885 568.6C683.405 567.24 684.952 566.56 686.525 566.56C688.125 566.56 689.459 567.24 690.525 568.6C691.592 569.933 692.125 571.573 692.125 573.52C692.125 575.44 691.659 577.413 690.725 579.44C689.792 581.44 688.499 583.107 686.845 584.44C685.219 585.747 683.485 586.4 681.645 586.4C680.285 586.4 679.152 585.773 678.245 584.52C677.339 583.267 676.885 581.68 676.885 579.76C676.885 577.813 677.339 575.8 678.245 573.72ZM697.21 571.44L697.09 568.44C697.09 567.187 697.384 566.56 697.97 566.56C698.477 566.56 698.957 566.893 699.41 567.56C699.89 568.2 700.13 568.973 700.13 569.88C700.13 570.76 700.104 571.427 700.05 571.88C702.37 568.36 704.57 566.6 706.65 566.6C707.957 566.6 708.61 566.92 708.61 567.56C708.61 567.88 708.464 568.173 708.17 568.44C707.877 568.707 707.41 569.013 706.77 569.36C705.357 569.973 704.157 570.92 703.17 572.2C702.21 573.453 701.424 574.88 700.81 576.48C700.197 578.08 699.704 579.427 699.33 580.52C698.984 581.613 698.717 582.467 698.53 583.08C698.344 583.693 698.13 584.293 697.89 584.88C697.464 585.947 696.97 586.48 696.41 586.48C695.957 586.48 695.584 586.227 695.29 585.72C695.024 585.187 694.89 584.68 694.89 584.2C694.89 583.693 695.117 582.707 695.57 581.24C696.664 577.88 697.21 574.613 697.21 571.44ZM725.173 555.36C725.599 555.36 726.119 555.76 726.733 556.56C727.373 557.333 727.693 558.067 727.693 558.76C727.693 559.453 727.359 561.427 726.693 564.68C726.026 567.907 725.253 571.253 724.373 574.72C722.453 582.507 721.186 586.4 720.573 586.4C720.199 586.4 719.786 586.173 719.333 585.72C718.906 585.24 718.693 584.827 718.693 584.48C718.693 584.133 718.786 583.44 718.973 582.4C716.359 585.067 714.079 586.4 712.133 586.4C710.959 586.4 709.893 585.867 708.933 584.8C707.999 583.733 707.533 582.627 707.533 581.48C707.533 579.827 707.973 577.867 708.853 575.6C709.759 573.307 711.053 571.227 712.733 569.36C714.413 567.493 716.199 566.56 718.093 566.56C719.986 566.56 721.306 567.693 722.053 569.96C723.413 564.307 724.159 559.84 724.293 556.56C724.293 555.76 724.586 555.36 725.173 555.36ZM720.773 575C720.773 573.56 720.519 572.347 720.013 571.36C719.533 570.373 718.946 569.88 718.253 569.88C717.106 569.88 715.933 570.587 714.733 572C713.533 573.413 712.573 575.04 711.853 576.88C711.159 578.693 710.813 580.267 710.813 581.6C710.813 582.08 710.986 582.467 711.333 582.76C711.679 583.053 712.093 583.2 712.573 583.2C713.613 583.2 715.013 582.453 716.773 580.96C718.559 579.467 719.853 577.707 720.653 575.68L720.773 575.2V575ZM734.853 573.56C734.24 573.56 733.507 573.013 732.653 571.92C731.8 570.827 731.373 569.973 731.373 569.36C731.373 568.72 731.56 568.093 731.933 567.48C732.333 566.84 732.72 566.52 733.093 566.52C733.76 566.52 734.4 567.28 735.013 568.8C735.653 570.32 735.973 571.373 735.973 571.96C735.973 573.027 735.6 573.56 734.853 573.56ZM731.773 587.28C731.16 587.28 730.427 586.747 729.573 585.68C728.747 584.613 728.333 583.76 728.333 583.12C728.333 582.48 728.52 581.853 728.893 581.24C729.267 580.6 729.653 580.28 730.053 580.28C730.693 580.28 731.32 581.04 731.933 582.56C732.573 584.053 732.893 585.24 732.893 586.12C732.893 586.413 732.787 586.68 732.573 586.92C732.36 587.16 732.093 587.28 731.773 587.28Z" fill="white"/>
<defs>
<filter id="filter0_f_209_153" x="-131" y="-100" width="1694" height="1162" filterUnits="userSpaceOnUse" color-interpolation-filters="sRGB">
<feFlood flood-opacity="0" result="BackgroundImageFix"/>
<feBlend mode="normal" in="SourceGraphic" in2="BackgroundImageFix" result="shape"/>
<feGaussianBlur stdDeviation="12" result="effect1_foregroundBlur_209_153"/>
</filter>
<filter id="filter1_f_209_153" x="-14.8315" y="319.819" width="1486.97" height="722.181" filterUnits="userSpaceOnUse" color-interpolation-filters="sRGB">
<feFlood flood-opacity="0" result="BackgroundImageFix"/>
<feBlend mode="normal" in="SourceGraphic" in2="BackgroundImageFix" result="shape"/>
<feGaussianBlur stdDeviation="2" result="effect1_foregroundBlur_209_153"/>
</filter>
<filter id="filter2_f_209_153" x="-8.68384" y="729.407" width="1474.68" height="176.163" filterUnits="userSpaceOnUse" color-interpolation-filters="sRGB">
<feFlood flood-opacity="0" result="BackgroundImageFix"/>
<feBlend mode="normal" in="SourceGraphic" in2="BackgroundImageFix" result="shape"/>
<feGaussianBlur stdDeviation="5" result="effect1_foregroundBlur_209_153"/>
</filter>
<filter id="filter3_f_209_153" x="-12.2269" y="471.509" width="996.87" height="131.909" filterUnits="userSpaceOnUse" color-interpolation-filters="sRGB">
<feFlood flood-opacity="0" result="BackgroundImageFix"/>
<feBlend mode="normal" in="SourceGraphic" in2="BackgroundImageFix" result="shape"/>
<feGaussianBlur stdDeviation="5" result="effect1_foregroundBlur_209_153"/>
</filter>
<filter id="filter4_f_209_153" x="648.299" y="621.059" width="817.693" height="75.9543" filterUnits="userSpaceOnUse" color-interpolation-filters="sRGB">
<feFlood flood-opacity="0" result="BackgroundImageFix"/>
<feBlend mode="normal" in="SourceGraphic" in2="BackgroundImageFix" result="shape"/>
<feGaussianBlur stdDeviation="5" result="effect1_foregroundBlur_209_153"/>
</filter>
<filter id="filter5_f_209_153" x="329.424" y="349.427" width="772.645" height="59.168" filterUnits="userSpaceOnUse" color-interpolation-filters="sRGB">
<feFlood flood-opacity="0" result="BackgroundImageFix"/>
<feBlend mode="normal" in="SourceGraphic" in2="BackgroundImageFix" result="shape"/>
<feGaussianBlur stdDeviation="5" result="effect1_foregroundBlur_209_153"/>
</filter>
<filter id="filter6_f_209_153" x="-3.68384" y="327.975" width="1464.17" height="56.7982" filterUnits="userSpaceOnUse" color-interpolation-filters="sRGB">
<feFlood flood-opacity="0" result="BackgroundImageFix"/>
<feBlend mode="normal" in="SourceGraphic" in2="BackgroundImageFix" result="shape"/>
<feGaussianBlur stdDeviation="2.5" result="effect1_foregroundBlur_209_153"/>
</filter>
<filter id="filter7_f_209_153" x="61.1033" y="713.983" width="1413.05" height="50.6941" filterUnits="userSpaceOnUse" color-interpolation-filters="sRGB">
<feFlood flood-opacity="0" result="BackgroundImageFix"/>
<feBlend mode="normal" in="SourceGraphic" in2="BackgroundImageFix" result="shape"/>
<feGaussianBlur stdDeviation="2.5" result="effect1_foregroundBlur_209_153"/>
</filter>
<filter id="filter8_f_209_153" x="237.305" y="904.392" width="1231.72" height="133.435" filterUnits="userSpaceOnUse" color-interpolation-filters="sRGB">
<feFlood flood-opacity="0" result="BackgroundImageFix"/>
<feBlend mode="normal" in="SourceGraphic" in2="BackgroundImageFix" result="shape"/>
<feGaussianBlur stdDeviation="5" result="effect1_foregroundBlur_209_153"/>
</filter>
<filter id="filter9_f_209_153" x="-3.68384" y="435.306" width="1464.68" height="146.834" filterUnits="userSpaceOnUse" color-interpolation-filters="sRGB">
<feFlood flood-opacity="0" result="BackgroundImageFix"/>
<feBlend mode="normal" in="SourceGraphic" in2="BackgroundImageFix" result="shape"/>
<feGaussianBlur stdDeviation="2.5" result="effect1_foregroundBlur_209_153"/>
</filter>
<filter id="filter10_f_209_153" x="-21.9299" y="747.598" width="414.625" height="149.276" filterUnits="userSpaceOnUse" color-interpolation-filters="sRGB">
<feFlood flood-opacity="0" result="BackgroundImageFix"/>
<feBlend mode="normal" in="SourceGraphic" in2="BackgroundImageFix" result="shape"/>
<feGaussianBlur stdDeviation="1.5" result="effect1_foregroundBlur_209_153"/>
</filter>
<filter id="filter11_f_209_153" x="971.149" y="436.815" width="424.055" height="162.638" filterUnits="userSpaceOnUse" color-interpolation-filters="sRGB">
<feFlood flood-opacity="0" result="BackgroundImageFix"/>
<feBlend mode="normal" in="SourceGraphic" in2="BackgroundImageFix" result="shape"/>
<feGaussianBlur stdDeviation="2" result="effect1_foregroundBlur_209_153"/>
</filter>
<filter id="filter12_f_209_153" x="3.46375" y="-23.9415" width="1474.68" height="336.396" filterUnits="userSpaceOnUse" color-interpolation-filters="sRGB">
<feFlood flood-opacity="0" result="BackgroundImageFix"/>
<feBlend mode="normal" in="SourceGraphic" in2="BackgroundImageFix" result="shape"/>
<feGaussianBlur stdDeviation="5" result="effect1_foregroundBlur_209_153"/>
</filter>
<filter id="filter13_f_209_153" x="1329.54" y="-83" width="80.8118" height="439.253" filterUnits="userSpaceOnUse" color-interpolation-filters="sRGB">
<feFlood flood-opacity="0" result="BackgroundImageFix"/>
<feBlend mode="normal" in="SourceGraphic" in2="BackgroundImageFix" result="shape"/>
<feGaussianBlur stdDeviation="3.5" result="effect1_foregroundBlur_209_153"/>
</filter>
<filter id="filter14_f_209_153" x="1081.53" y="-42.3059" width="158.759" height="406.189" filterUnits="userSpaceOnUse" color-interpolation-filters="sRGB">
<feFlood flood-opacity="0" result="BackgroundImageFix"/>
<feBlend mode="normal" in="SourceGraphic" in2="BackgroundImageFix" result="shape"/>
<feGaussianBlur stdDeviation="3.5" result="effect1_foregroundBlur_209_153"/>
</filter>
<filter id="filter15_f_209_153" x="405.273" y="-45.41" width="77.8488" height="394.594" filterUnits="userSpaceOnUse" color-interpolation-filters="sRGB">
<feFlood flood-opacity="0" result="BackgroundImageFix"/>
<feBlend mode="normal" in="SourceGraphic" in2="BackgroundImageFix" result="shape"/>
<feGaussianBlur stdDeviation="2" result="effect1_foregroundBlur_209_153"/>
</filter>
<filter id="filter16_f_209_153" x="648.25" y="-47.41" width="73.7502" height="406.732" filterUnits="userSpaceOnUse" color-interpolation-filters="sRGB">
<feFlood flood-opacity="0" result="BackgroundImageFix"/>
<feBlend mode="normal" in="SourceGraphic" in2="BackgroundImageFix" result="shape"/>
<feGaussianBlur stdDeviation="3" result="effect1_foregroundBlur_209_153"/>
</filter>
<filter id="filter17_f_209_153" x="13.5867" y="-33.0977" width="1460.5" height="202.106" filterUnits="userSpaceOnUse" color-interpolation-filters="sRGB">
<feFlood flood-opacity="0" result="BackgroundImageFix"/>
<feBlend mode="normal" in="SourceGraphic" in2="BackgroundImageFix" result="shape"/>
<feGaussianBlur stdDeviation="5" result="effect1_foregroundBlur_209_153"/>
</filter>
<filter id="filter18_f_209_153" x="1231.29" y="-28.1497" width="102.193" height="429.253" filterUnits="userSpaceOnUse" color-interpolation-filters="sRGB">
<feFlood flood-opacity="0" result="BackgroundImageFix"/>
<feBlend mode="normal" in="SourceGraphic" in2="BackgroundImageFix" result="shape"/>
<feGaussianBlur stdDeviation="1" result="effect1_foregroundBlur_209_153"/>
</filter>
<filter id="filter19_f_209_153" x="885.091" y="-26.0977" width="69.7749" height="412.941" filterUnits="userSpaceOnUse" color-interpolation-filters="sRGB">
<feFlood flood-opacity="0" result="BackgroundImageFix"/>
<feBlend mode="normal" in="SourceGraphic" in2="BackgroundImageFix" result="shape"/>
<feGaussianBlur stdDeviation="1.5" result="effect1_foregroundBlur_209_153"/>
</filter>
<filter id="filter20_f_209_153" x="724.147" y="-30.1497" width="71.7749" height="394.594" filterUnits="userSpaceOnUse" color-interpolation-filters="sRGB">
<feFlood flood-opacity="0" result="BackgroundImageFix"/>
<feBlend mode="normal" in="SourceGraphic" in2="BackgroundImageFix" result="shape"/>
<feGaussianBlur stdDeviation="2" result="effect1_foregroundBlur_209_153"/>
</filter>
<filter id="filter21_f_209_153" x="686.68" y="-29.1497" width="496.459" height="93.4922" filterUnits="userSpaceOnUse" color-interpolation-filters="sRGB">
<feFlood flood-opacity="0" result="BackgroundImageFix"/>
<feBlend mode="normal" in="SourceGraphic" in2="BackgroundImageFix" result="shape"/>
<feGaussianBlur stdDeviation="1.5" result="effect1_foregroundBlur_209_153"/>
</filter>
<filter id="filter22_f_209_153" x="1052.15" y="-47.4274" width="115.279" height="422.027" filterUnits="userSpaceOnUse" color-interpolation-filters="sRGB">
<feFlood flood-opacity="0" result="BackgroundImageFix"/>
<feBlend mode="normal" in="SourceGraphic" in2="BackgroundImageFix" result="shape"/>
<feGaussianBlur stdDeviation="2.5" result="effect1_foregroundBlur_209_153"/>
</filter>
<filter id="filter23_f_209_153" x="295.945" y="-27.0977" width="152.759" height="398.663" filterUnits="userSpaceOnUse" color-interpolation-filters="sRGB">
<feFlood flood-opacity="0" result="BackgroundImageFix"/>
<feBlend mode="normal" in="SourceGraphic" in2="BackgroundImageFix" result="shape"/>
<feGaussianBlur stdDeviation="2" result="effect1_foregroundBlur_209_153"/>
</filter>
<filter id="filter24_f_209_153" x="183.555" y="-37.8146" width="111.81" height="424.166" filterUnits="userSpaceOnUse" color-interpolation-filters="sRGB">
<feFlood flood-opacity="0" result="BackgroundImageFix"/>
<feBlend mode="normal" in="SourceGraphic" in2="BackgroundImageFix" result="shape"/>
<feGaussianBlur stdDeviation="1" result="effect1_foregroundBlur_209_153"/>
</filter>
<filter id="filter25_f_209_153" x="205.344" y="-27.0977" width="408.365" height="106.174" filterUnits="userSpaceOnUse" color-interpolation-filters="sRGB">
<feFlood flood-opacity="0" result="BackgroundImageFix"/>
<feBlend mode="normal" in="SourceGraphic" in2="BackgroundImageFix" result="shape"/>
<feGaussianBlur stdDeviation="2" result="effect1_foregroundBlur_209_153"/>
</filter>
<filter id="filter26_f_209_153" x="-75.5695" y="-40.3233" width="152.759" height="398.663" filterUnits="userSpaceOnUse" color-interpolation-filters="sRGB">
<feFlood flood-opacity="0" result="BackgroundImageFix"/>
<feBlend mode="normal" in="SourceGraphic" in2="BackgroundImageFix" result="shape"/>
<feGaussianBlur stdDeviation="2" result="effect1_foregroundBlur_209_153"/>
</filter>
<filter id="filter27_f_209_153" x="-0.683838" y="266.374" width="140.154" height="119.469" filterUnits="userSpaceOnUse" color-interpolation-filters="sRGB">
<feFlood flood-opacity="0" result="BackgroundImageFix"/>
<feBlend mode="normal" in="SourceGraphic" in2="BackgroundImageFix" result="shape"/>
<feGaussianBlur stdDeviation="1" result="effect1_foregroundBlur_209_153"/>
</filter>
<filter id="filter28_f_209_153" x="-2.68384" y="282.177" width="136.056" height="105.666" filterUnits="userSpaceOnUse" color-interpolation-filters="sRGB">
<feFlood flood-opacity="0" result="BackgroundImageFix"/>
<feBlend mode="normal" in="SourceGraphic" in2="BackgroundImageFix" result="shape"/>
<feGaussianBlur stdDeviation="2" result="effect1_foregroundBlur_209_153"/>
</filter>
<filter id="filter29_f_209_153" x="917.497" y="53.2731" width="33.3076" height="310.153" filterUnits="userSpaceOnUse" color-interpolation-filters="sRGB">
<feFlood flood-opacity="0" result="BackgroundImageFix"/>
<feBlend mode="normal" in="SourceGraphic" in2="BackgroundImageFix" result="shape"/>
<feGaussianBlur stdDeviation="2" result="effect1_foregroundBlur_209_153"/>
</filter>
<filter id="filter30_f_209_153" x="244.317" y="64.9726" width="48.4919" height="303.541" filterUnits="userSpaceOnUse" color-interpolation-filters="sRGB">
<feFlood flood-opacity="0" result="BackgroundImageFix"/>
<feBlend mode="normal" in="SourceGraphic" in2="BackgroundImageFix" result="shape"/>
<feGaussianBlur stdDeviation="2" result="effect1_foregroundBlur_209_153"/>
</filter>
<filter id="filter31_f_209_153" x="385.027" y="76.1635" width="42.9243" height="254.199" filterUnits="userSpaceOnUse" color-interpolation-filters="sRGB">
<feFlood flood-opacity="0" result="BackgroundImageFix"/>
<feBlend mode="normal" in="SourceGraphic" in2="BackgroundImageFix" result="shape"/>
<feGaussianBlur stdDeviation="2" result="effect1_foregroundBlur_209_153"/>
</filter>
<filter id="filter32_f_209_153" x="1093.64" y="-17.9415" width="63.6765" height="382.385" filterUnits="userSpaceOnUse" color-interpolation-filters="sRGB">
<feFlood flood-opacity="0" result="BackgroundImageFix"/>
<feBlend mode="normal" in="SourceGraphic" in2="BackgroundImageFix" result="shape"/>
<feGaussianBlur stdDeviation="2" result="effect1_foregroundBlur_209_153"/>
</filter>
<filter id="filter33_f_209_153" x="1289.01" y="-17.9415" width="34.3198" height="409.854" filterUnits="userSpaceOnUse" color-interpolation-filters="sRGB">
<feFlood flood-opacity="0" result="BackgroundImageFix"/>
<feBlend mode="normal" in="SourceGraphic" in2="BackgroundImageFix" result="shape"/>
<feGaussianBlur stdDeviation="2" result="effect1_foregroundBlur_209_153"/>
</filter>
<filter id="filter34_f_209_153" x="1178.74" y="53.8859" width="51.3813" height="305.876" filterUnits="userSpaceOnUse" color-interpolation-filters="sRGB">
<feFlood flood-opacity="0" result="BackgroundImageFix"/>
<feBlend mode="normal" in="SourceGraphic" in2="BackgroundImageFix" result="shape"/>
<feGaussianBlur stdDeviation="5" result="effect1_foregroundBlur_209_153"/>
</filter>
<filter id="filter35_f_209_153" x="988.049" y="-18.7362" width="570.951" height="398.108" filterUnits="userSpaceOnUse" color-interpolation-filters="sRGB">
<feFlood flood-opacity="0" result="BackgroundImageFix"/>
<feBlend mode="normal" in="SourceGraphic" in2="BackgroundImageFix" result="shape"/>
<feGaussianBlur stdDeviation="10" result="effect1_foregroundBlur_209_153"/>
</filter>
<filter id="filter36_f_209_153" x="629.188" y="-25.8577" width="903.998" height="440.836" filterUnits="userSpaceOnUse" color-interpolation-filters="sRGB">
<feFlood flood-opacity="0" result="BackgroundImageFix"/>
<feBlend mode="normal" in="SourceGraphic" in2="BackgroundImageFix" result="shape"/>
<feGaussianBlur stdDeviation="10" result="effect1_foregroundBlur_209_153"/>
</filter>
<filter id="filter37_f_209_153" x="124.05" y="-62.991" width="1367.13" height="433.206" filterUnits="userSpaceOnUse" color-interpolation-filters="sRGB">
<feFlood flood-opacity="0" result="BackgroundImageFix"/>
<feBlend mode="normal" in="SourceGraphic" in2="BackgroundImageFix" result="shape"/>
<feGaussianBlur stdDeviation="10" result="effect1_foregroundBlur_209_153"/>
</filter>
<filter id="filter38_f_209_153" x="-127" y="-66.4968" width="1624.76" height="339.61" filterUnits="userSpaceOnUse" color-interpolation-filters="sRGB">
<feFlood flood-opacity="0" result="BackgroundImageFix"/>
<feBlend mode="normal" in="SourceGraphic" in2="BackgroundImageFix" result="shape"/>
<feGaussianBlur stdDeviation="10" result="effect1_foregroundBlur_209_153"/>
</filter>
<filter id="filter39_f_209_153" x="21.302" y="-42.644" width="1145.43" height="182.938" filterUnits="userSpaceOnUse" color-interpolation-filters="sRGB">
<feFlood flood-opacity="0" result="BackgroundImageFix"/>
<feBlend mode="normal" in="SourceGraphic" in2="BackgroundImageFix" result="shape"/>
<feGaussianBlur stdDeviation="10" result="effect1_foregroundBlur_209_153"/>
</filter>
<filter id="filter40_f_209_153" x="-66.4071" y="-114.576" width="1625.94" height="669.124" filterUnits="userSpaceOnUse" color-interpolation-filters="sRGB">
<feFlood flood-opacity="0" result="BackgroundImageFix"/>
<feBlend mode="normal" in="SourceGraphic" in2="BackgroundImageFix" result="shape"/>
<feGaussianBlur stdDeviation="50" result="effect1_foregroundBlur_209_153"/>
</filter>
</defs>
</svg>
